<?xml version="1.0" encoding="utf-8"?>
<svg version="1.0" width="1280.000000pt" height="720.000000pt" viewBox="0 0 1280.000000 720.000000" preserveAspectRatio="xMidYMid meet" xmlns="http://www.w3.org/2000/svg">
  <g transform="translate(0.000000,720.000000) scale(0.100000,-0.100000)" fill="#000000" stroke="none">
    <path d="M4398 6190 c-257 -44 -458 -232 -523 -488 -13 -49 -17 -130 -20 -370 -5 -451 -39 -716 -125 -975 -117 -349 -278 -527 -527 -583 l-73 -16 0 -159 0 -158 38 -6 c175 -30 321 -130 426 -292 181 -281 272 -755 264 -1385 -2 -175 0 -201 20 -273 44 -152 129 -275 250 -362 40 -28 98 -61 130 -73 137 -52 62 -50 2137 -50 2073 0 2000 -2 2136 49 126 48 268 179 333 308 59 119 67 177 71 512 2 168 6 324 9 346 3 22 10 90 16 150 14 138 53 332 92 455 115 358 283 550 533 605 l75 17 0 159 0 159 -27 5 c-88 17 -125 29 -190 61 -211 102 -362 364 -443 764 -45 225 -61 409 -65 750 -4 326 -8 358 -59 475 -31 69 -100 168 -150 213 -62 56 -157 111 -240 140 l-81 27 -1980 1 c-1089 1 -2001 -2 -2027 -6z m2437 -1227 c247 -57 423 -182 515 -365 177 -353 3 -779 -364 -893 l-71 -22 40 -7 c167 -30 310 -101 415 -206 81 -81 124 -151 162 -265 20 -60 23 -90 23 -210 -1 -165 -15 -229 -77 -355 -80 -159 -230 -283 -430 -355 -187 -67 -232 -70 -909 -70 -665 0 -644 -2 -674 61 -14 29 -15 174 -13 1338 l3 1305 29 30 c16 16 38 32 50 35 11 2 289 3 616 2 560 -3 600 -4 685 -23z" style="fill: rgb(239, 232, 232);"/>
    <path d="M5900 4220 l0 -412 328 4 c352 5 406 12 526 69 70 32 150 111 183 177 26 53 28 66 28 177 0 118 -1 121 -34 183 -53 98 -126 151 -259 189 -47 13 -122 17 -414 21 l-358 4 0 -412z" style="fill: rgb(239, 232, 232);"/>
    <path d="M5923 3472 l-23 -3 0 -451 0 -450 378 4 c420 5 464 10 598 74 144 68 213 180 222 357 8 171 -43 282 -168 365 -67 44 -157 76 -263 93 -57 10 -693 19 -744 11z" style="fill: rgb(239, 232, 232);"/>
  </g>
</svg>