<?xml version="1.0" encoding="utf-8"?>
<svg version="1.0" width="577.000000pt" height="433.000000pt" viewBox="0 0 577.000000 433.000000" preserveAspectRatio="xMidYMid meet" xmlns="http://www.w3.org/2000/svg">
  <g transform="translate(0.000000,433.000000) scale(0.100000,-0.100000)" fill="#000000" stroke="none">
    <path d="M2270 3430 l0 -190 155 0 155 0 0 60 0 60 -90 0 -90 0 0 65 0 65 90 0 90 0 0 65 0 65 -155 0 -155 0 0 -190z" style="fill: rgb(236, 228, 228);"/>
    <path d="M2730 3554 l0 -66 60 -55 c33 -31 60 -60 60 -64 0 -5 -27 -9 -60 -9 l-60 0 0 -60 0 -60 160 0 160 0 0 57 0 57 -67 68 -67 68 67 0 67 0 0 65 0 65 -160 0 -160 0 0 -66z" style="fill: rgb(236, 228, 228);"/>
    <path d="M3190 3551 l0 -69 60 -52 c33 -29 60 -56 60 -61 0 -5 -27 -9 -60 -9 l-60 0 0 -60 0 -60 160 0 160 0 0 57 0 57 -67 68 -67 68 67 0 67 0 0 65 0 65 -160 0 -160 0 0 -69z" style="fill: rgb(236, 228, 228);"/>
    <path d="M1847 3044 c-3 -4 -4 -18 -1 -33 2 -14 13 -125 25 -246 31 -341 56 -610 79 -845 11 -118 36 -385 54 -594 19 -208 38 -382 43 -386 4 -5 80 -27 168 -50 88 -23 275 -73 414 -111 l255 -69 315 84 c174 47 361 97 416 111 55 15 105 31 111 36 6 5 14 51 18 102 4 50 25 283 47 517 22 234 51 542 64 685 13 143 34 361 45 485 12 124 23 245 23 270 l2 45 -1036 3 c-569 1 -1038 -1 -1042 -4z m1879 -179 c6 -13 -33 -472 -123 -1488 l-27 -299 -25 -10 c-14 -5 -161 -45 -326 -89 -165 -44 -308 -82 -317 -85 -16 -5 -18 7 -20 123 l-3 128 -255 75 c-140 42 -262 78 -271 82 -12 5 -18 39 -28 169 -6 90 -15 181 -18 202 l-6 37 137 0 c156 0 141 13 150 -124 3 -44 8 -81 10 -84 5 -4 265 -71 279 -72 4 0 7 92 7 205 l0 205 -297 2 -298 3 -6 60 c-4 33 -9 91 -12 128 -5 67 -4 69 22 78 14 6 154 63 310 127 l284 117 -322 3 c-176 1 -321 6 -321 10 0 4 -7 54 -15 112 -8 58 -15 113 -15 122 0 16 24 18 333 20 l332 3 3 120 c2 80 7 122 15 127 7 4 193 8 415 8 351 0 403 -2 408 -15z" style="fill: rgb(236, 228, 228);"/>
  </g>
</svg>