<?xml version="1.0" encoding="UTF-8" standalone="no" ?>
<!DOCTYPE svg PUBLIC "-//W3C//DTD SVG 1.1//EN" "http://www.w3.org/Graphics/SVG/1.1/DTD/svg11.dtd">
<svg xmlns="http://www.w3.org/2000/svg" xmlns:xlink="http://www.w3.org/1999/xlink" version="1.1" width="40" height="40" viewBox="0 0 40 40" xml:space="preserve">
<desc>Created with Fabric.js 5.3.0</desc>
<defs>
</defs>
<g transform="matrix(1 0 0 1 20 20)" id="d7GT4gBmdmThZcic70UbP"  >
<path style="stroke: none; stroke-width: 1; stroke-dasharray: none; stroke-linecap: butt; stroke-dashoffset: 0; stroke-linejoin: miter; stroke-miterlimit: 4; fill: rgb(255,255,255); fill-rule: nonzero; opacity: 1;"  transform=" translate(-20.625085, -19.375)" d="M 6.25017 26.0974 L 9.58763 23.994 C 10.2316 25.1828 10.8173 26.1888 12.2223 26.1888 C 13.5691 26.1888 14.4183 25.6402 14.4183 23.5063 L 14.4183 8.99412 L 18.5168 8.99412 L 18.5168 23.5666 C 18.5168 27.9872 16.0285 29.9995 12.398 29.9995 C 9.11929 29.9995 7.21631 28.2315 6.25017 26.0974 Z M 20.743 25.64 L 24.0801 23.628 C 24.9587 25.122 26.1005 26.2195 28.1203 26.2195 C 29.8187 26.2195 30.9015 25.3352 30.9015 24.1157 C 30.9015 22.6524 29.789 22.134 27.9154 21.2806 L 26.891 20.8229 C 23.9339 19.5123 21.9725 17.8659 21.9725 14.3904 C 21.9725 11.1891 24.3145 8.75 27.9741 8.75 C 30.5797 8.75 32.4534 9.69526 33.7999 12.1647 L 30.6087 14.299 C 29.9059 12.9881 29.1451 12.4698 27.974 12.4698 C 26.7736 12.4698 26.0124 13.2625 26.0124 14.299 C 26.0124 15.5794 26.7736 16.098 28.53 16.8907 L 29.5546 17.3479 C 33.0386 18.9029 35 20.4881 35 24.0548 C 35 27.8966 32.1017 30 28.208 30 C 24.4023 30 21.9432 28.1096 20.743 25.64 Z" stroke-linecap="round" />
</g>
</svg>