<?xml version="1.0" encoding="utf-8"?>
<svg version="1.0" width="340.000000pt" height="175.000000pt" viewBox="0 0 340.000000 175.000000" preserveAspectRatio="xMidYMid meet" xmlns="http://www.w3.org/2000/svg">
  <g transform="translate(0.000000,175.000000) scale(0.100000,-0.100000)" fill="#000000" stroke="none">
    <path d="M2511 1699 c-13 -5 -66 -16 -118 -24 -164 -24 -216 -65 -340 -266 -83 -133 -157 -208 -240 -245 -31 -14 -122 -41 -202 -60 -231 -55 -348 -123 -437 -255 -58 -85 -71 -92 -221 -108 -92 -10 -153 -33 -153 -58 0 -16 32 -33 62 -33 21 0 20 -2 -9 -21 -62 -40 -29 -69 77 -69 78 0 163 28 236 77 116 79 138 87 258 91 98 4 376 -22 376 -35 0 -12 -37 -74 -73 -122 l-40 -54 60 5 c84 8 181 49 218 93 17 20 49 57 72 82 l43 45 30 -26 c36 -30 83 -40 146 -33 59 6 73 20 50 46 -24 27 -45 88 -46 134 0 21 13 82 29 135 16 54 43 161 60 237 18 77 38 149 46 161 7 11 49 53 93 93 89 80 105 108 100 172 -3 39 -6 44 -28 46 -14 1 -36 -2 -49 -8z m-1 -49 c0 -5 11 -12 25 -16 51 -13 23 -69 -67 -135 -37 -28 -77 -62 -87 -76 -11 -13 -31 -76 -46 -141 -61 -267 -111 -388 -192 -462 l-48 -45 -3 30 c-6 60 -13 57 -51 -21 -59 -123 -150 -202 -265 -230 l-29 -7 30 44 c62 91 103 194 103 264 0 26 -2 27 -14 15 -8 -8 -23 -37 -33 -65 -29 -77 -41 -80 -239 -59 -217 23 -261 17 -388 -60 -50 -30 -114 -64 -141 -74 -62 -24 -150 -36 -189 -24 l-30 8 37 28 c20 16 37 32 37 37 0 5 -20 9 -44 9 -25 0 -48 5 -51 10 -11 18 61 40 152 46 133 9 146 15 208 99 30 40 73 89 97 110 71 60 188 111 337 144 165 38 279 90 348 160 26 27 77 98 112 157 77 130 146 207 207 230 23 9 78 20 121 24 43 4 84 8 91 9 6 0 12 -3 12 -9z m-269 -847 c9 -32 19 -66 24 -75 6 -15 2 -18 -29 -18 -47 0 -96 25 -96 48 0 18 65 102 78 102 4 0 15 -26 23 -57z" style="fill: rgb(255, 255, 255);"/>
    <path d="M2458 1618 c-28 -37 -48 -73 -48 -85 1 -4 7 3 15 17 9 15 15 19 15 10 0 -9 6 -5 15 10 l13 25 7 -30 c11 -48 16 -53 11 -12 -3 20 -1 35 4 32 16 -10 23 36 8 52 -13 12 -18 10 -40 -19z m26 -20 c-3 -5 -9 -6 -14 -3 -5 3 -13 -3 -19 -12 -6 -10 -11 -13 -11 -7 0 5 5 15 10 20 13 13 41 14 34 2z" style="fill: rgb(255, 255, 255);"/>
    <path d="M2307 1582 c-25 -27 -21 -42 12 -42 32 0 61 22 61 46 0 21 -54 18 -73 -4z" style="fill: rgb(255, 255, 255);"/>
    <path d="M2462 1540 c0 -14 2 -19 5 -12 2 6 2 18 0 25 -3 6 -5 1 -5 -13z" style="fill: rgb(255, 255, 255);"/>
    <path d="M1637 466 c-11 -28 4 -47 32 -44 20 2 26 8 26 28 0 20 -6 26 -26 28 -17 2 -29 -3 -32 -12z" style="fill: rgb(255, 255, 255);"/>
    <path d="M547 273 c-15 -109 -27 -204 -27 -210 0 -7 8 -13 18 -13 17 0 21 18 38 145 10 80 21 145 24 144 3 0 36 -65 74 -145 39 -79 74 -144 78 -144 4 0 41 66 82 147 41 82 75 145 75 141 2 -21 32 -237 37 -261 4 -18 12 -27 25 -27 10 0 19 3 19 8 -1 28 -59 405 -63 409 -3 2 -43 -73 -89 -169 l-84 -173 -84 173 c-46 94 -86 172 -89 172 -4 0 -19 -89 -34 -197z" style="fill: rgb(255, 255, 255);"/>
    <path d="M2180 260 l0 -210 103 0 c143 1 195 26 232 113 21 50 19 142 -4 192 -22 50 -69 91 -119 105 -20 5 -76 10 -124 10 l-88 0 0 -210z m240 136 c69 -45 92 -169 43 -234 -40 -54 -69 -67 -159 -71 l-84 -3 0 172 0 173 81 -6 c63 -4 88 -11 119 -31z" style="fill: rgb(255, 255, 255);"/>
    <path d="M2620 260 l0 -210 80 0 c123 0 170 33 170 121 0 46 -26 89 -60 101 -11 3 -9 11 8 33 26 33 29 85 6 120 -20 31 -63 45 -140 45 l-64 0 0 -210z m155 145 c30 -29 31 -45 7 -75 -17 -21 -104 -45 -117 -32 -3 3 -5 34 -5 69 l0 63 45 0 c35 0 52 -6 70 -25z m24 -181 c42 -35 42 -73 0 -109 -27 -22 -40 -25 -83 -23 l-51 3 -3 78 -3 77 55 0 c44 0 60 -5 85 -26z" style="fill: rgb(255, 255, 255);"/>
    <path d="M1140 352 c-92 -50 -115 -172 -48 -257 46 -58 140 -72 202 -30 44 30 46 30 46 5 0 -13 7 -20 20 -20 19 0 20 7 20 155 0 148 -1 155 -20 155 -13 0 -20 -7 -20 -20 0 -25 -4 -25 -40 1 -41 31 -115 36 -160 11z m162 -61 c53 -59 50 -130 -8 -180 -28 -25 -44 -31 -80 -31 -120 0 -165 166 -62 230 48 31 113 22 150 -19z" style="fill: rgb(255, 255, 255);"/>
    <path d="M1510 350 c-16 -16 -20 -17 -20 -5 0 9 -9 15 -25 15 l-25 0 0 -155 0 -155 25 0 25 0 0 105 c0 121 13 161 58 171 15 4 30 12 34 18 20 31 -42 36 -72 6z" style="fill: rgb(255, 255, 255);"/>
    <path d="M1851 353 c-71 -35 -106 -130 -76 -208 36 -94 149 -135 228 -81 46 31 47 31 47 6 0 -13 7 -20 20 -20 19 0 20 7 20 155 0 148 -1 155 -20 155 -15 0 -20 -7 -20 -27 l0 -26 -22 20 c-52 47 -115 56 -177 26z m163 -62 c27 -28 31 -38 31 -87 0 -51 -3 -58 -37 -90 -111 -101 -263 36 -180 164 39 61 131 67 186 13z" style="fill: rgb(255, 255, 255);"/>
    <path d="M1650 205 c0 -148 1 -155 20 -155 19 0 20 7 20 155 0 148 -1 155 -20 155 -19 0 -20 -7 -20 -155z" style="fill: rgb(255, 255, 255);"/>
  </g>
</svg>