<?xml version="1.0" encoding="utf-8"?>
<svg version="1.1" width="512px" height="512px" style="shape-rendering:geometricPrecision; text-rendering:geometricPrecision; image-rendering:optimizeQuality; fill-rule:evenodd; clip-rule:evenodd" xmlns="http://www.w3.org/2000/svg">
  <g>
    <path style="opacity: 0.993; fill: rgb(255, 255, 255);" d="M 253.5,11.5 C 257.705,19.5675 262.205,27.5675 267,35.5C 308.849,74.8612 333.516,123.194 341,180.5C 345.367,233.058 330.7,279.392 297,319.5C 287.584,329.252 277.917,338.585 268,347.5C 266.109,351.611 265.109,355.944 265,360.5C 264.5,371.495 264.333,382.495 264.5,393.5C 260.634,393.046 257.134,391.712 254,389.5C 253.749,375.237 251.749,361.237 248,347.5C 177.884,290.81 154.884,218.81 179,131.5C 188.821,101.18 203.821,73.8463 224,49.5C 231.697,41.4689 239.697,33.8022 248,26.5C 251.509,22.1148 253.342,17.1148 253.5,11.5 Z"/>
  </g>
  <g>
    <path style="opacity: 0.93; fill: rgb(255, 255, 255);" d="M 352.5,392.5 C 367.837,392.333 383.17,392.5 398.5,393C 418.596,396.479 429.263,408.479 430.5,429C 429.318,450.855 417.985,464.189 396.5,469C 381.837,469.5 367.17,469.667 352.5,469.5C 352.472,467.418 353.139,465.584 354.5,464C 357.458,463.771 359.958,462.604 362,460.5C 362.667,441.167 362.667,421.833 362,402.5C 361.5,401.333 360.667,400.5 359.5,400C 356.367,399.607 353.367,398.774 350.5,397.5C 351.456,395.925 352.123,394.258 352.5,392.5 Z M 376.5,399.5 C 406.726,398.227 419.56,412.561 415,442.5C 409.803,459.184 398.637,465.684 381.5,462C 379.714,461.215 378.214,460.049 377,458.5C 375.87,448.57 375.37,438.57 375.5,428.5C 375.525,418.789 375.858,409.122 376.5,399.5 Z"/>
  </g>
  <g>
    <path style="opacity: 0.926; fill: rgb(255, 255, 255);" d="M 438.5,392.5 C 451.837,392.333 465.171,392.5 478.5,393C 495.282,396.68 499.782,406.18 492,421.5C 489.92,423.123 487.754,424.623 485.5,426C 501.406,431.705 505.573,442.205 498,457.5C 493.751,462.373 488.584,465.873 482.5,468C 467.225,469.435 451.891,469.935 436.5,469.5C 436.357,467.738 436.691,466.071 437.5,464.5C 440.144,463.604 442.81,462.771 445.5,462C 446.126,461.25 446.626,460.416 447,459.5C 447.667,440.167 447.667,420.833 447,401.5C 443.888,399.345 440.388,398.345 436.5,398.5C 436.604,396.297 437.27,394.297 438.5,392.5 Z M 460.5,399.5 C 466.892,398.791 472.892,399.957 478.5,403C 482.242,407.517 483.409,412.684 482,418.5C 481.215,420.286 480.049,421.786 478.5,423C 472.613,425.152 466.613,425.652 460.5,424.5C 460.5,416.167 460.5,407.833 460.5,399.5 Z M 460.5,431.5 C 470.493,429.784 478.993,432.45 486,439.5C 490.567,453.045 485.9,461.045 472,463.5C 468.442,463.125 465.109,462.125 462,460.5C 460.552,450.939 460.052,441.273 460.5,431.5 Z"/>
  </g>
  <g>
    <path style="opacity: 0.926; fill: rgb(255, 255, 255);" d="M 26.5,417.5 C 27.4959,417.414 28.3292,417.748 29,418.5C 29.0781,420.657 29.2448,422.657 29.5,424.5C 34.605,420.78 40.2717,418.447 46.5,417.5C 49.4334,417.466 52.1,418.299 54.5,420C 56.0542,421.892 57.8876,423.392 60,424.5C 66.3355,419.499 73.5021,417.332 81.5,418C 88.8745,420.883 92.7078,426.383 93,434.5C 93.3333,443.5 93.6667,452.5 94,461.5C 95.9449,462.863 98.1116,463.697 100.5,464C 101.38,465.356 101.714,466.856 101.5,468.5C 92.8378,468.928 84.1712,469.262 75.5,469.5C 75.3398,467.801 75.5065,466.134 76,464.5C 78.5104,463.891 80.5104,462.558 82,460.5C 82.6667,452.5 82.6667,444.5 82,436.5C 80.5733,428.2 75.7399,425.034 67.5,427C 65.2537,428.039 63.087,429.206 61,430.5C 61.1722,440.81 61.5055,451.143 62,461.5C 63.897,463.016 66.0637,463.683 68.5,463.5C 68.5,465.167 68.5,466.833 68.5,468.5C 60.4931,468.666 52.4931,468.5 44.5,468C 42.4078,467.047 42.0745,465.714 43.5,464C 46.0075,463.907 48.1741,463.074 50,461.5C 50.6667,452.5 50.6667,443.5 50,434.5C 48.9586,429.293 45.7919,426.293 40.5,425.5C 35.9957,426.334 32.1624,428.334 29,431.5C 28.3333,440.833 28.3333,450.167 29,459.5C 29.2492,460.624 29.7492,461.624 30.5,462.5C 32.3817,463.093 34.2151,463.76 36,464.5C 36.49,465.793 36.6567,467.127 36.5,468.5C 27.8378,468.928 19.1712,469.262 10.5,469.5C 9.6029,464.728 11.6029,462.395 16.5,462.5C 17.2508,461.624 17.7508,460.624 18,459.5C 18.6667,449.5 18.6667,439.5 18,429.5C 14.8817,428.029 12.0484,426.196 9.5,424C 9.6448,423.228 9.97814,422.561 10.5,422C 16.0488,420.8 21.3822,419.3 26.5,417.5 Z"/>
  </g>
  <g>
    <path style="opacity: 0.924; fill: rgb(255, 255, 255);" d="M 130.5,417.5 C 153.131,416.968 162.965,427.968 160,450.5C 153.692,467.072 141.858,473.239 124.5,469C 113.959,464.103 108.625,455.77 108.5,444C 109.52,429.822 116.853,420.989 130.5,417.5 Z M 130.5,423.5 C 138.783,423.721 144.283,427.721 147,435.5C 149.278,443.646 148.945,451.646 146,459.5C 140.622,464.244 134.789,464.744 128.5,461C 121.104,452.359 118.938,442.526 122,431.5C 123.445,427.218 126.278,424.551 130.5,423.5 Z"/>
  </g>
  <g>
    <path style="opacity: 0.931; fill: rgb(255, 255, 255);" d="M 184.5,417.5 C 185.822,417.33 186.989,417.663 188,418.5C 188.305,420.557 188.305,422.557 188,424.5C 196.431,416.797 205.598,415.63 215.5,421C 216.667,422.833 217.833,424.667 219,426.5C 220.115,438.14 221.115,449.807 222,461.5C 224.071,462.525 226.238,463.358 228.5,464C 229.554,465.388 229.72,466.888 229,468.5C 220.251,469.484 211.418,469.817 202.5,469.5C 202.5,467.5 202.5,465.5 202.5,463.5C 204.936,463.683 207.103,463.016 209,461.5C 209.895,451.439 209.562,441.439 208,431.5C 202.948,425.826 197.114,424.992 190.5,429C 188.934,430.684 187.934,432.684 187.5,435C 188.128,444.151 188.795,453.318 189.5,462.5C 191.444,463.189 193.444,463.689 195.5,464C 196.747,465.458 196.747,466.958 195.5,468.5C 186.525,469.498 177.525,469.832 168.5,469.5C 168.34,467.801 168.506,466.134 169,464.5C 171.874,464.041 174.208,462.707 176,460.5C 176.667,450.167 176.667,439.833 176,429.5C 173.455,428.478 170.955,427.312 168.5,426C 167.167,424.667 167.167,423.333 168.5,422C 174.113,421.053 179.446,419.553 184.5,417.5 Z"/>
  </g>
  <g>
    <path style="opacity: 0.919; fill: rgb(255, 255, 255);" d="M 253.5,417.5 C 256.85,417.335 260.183,417.502 263.5,418C 267.697,419.633 272.031,420.8 276.5,421.5C 279.191,421.321 281.525,420.321 283.5,418.5C 285.871,420.954 286.038,423.621 284,426.5C 281.435,428.179 278.602,428.846 275.5,428.5C 277.177,444.666 269.844,453.499 253.5,455C 250.184,456.251 249.85,457.918 252.5,460C 259.812,461.131 267.145,462.131 274.5,463C 279.667,464.167 282.833,467.333 284,472.5C 284.195,484.336 278.695,492.502 267.5,497C 258.833,500.333 250.167,500.333 241.5,497C 233.893,492.838 231.393,486.671 234,478.5C 237.5,475.667 241,472.833 244.5,470C 240.872,468.208 238.539,465.375 237.5,461.5C 239.711,458.715 242.377,456.382 245.5,454.5C 234.578,447.48 232.078,438.147 238,426.5C 242.274,421.785 247.441,418.785 253.5,417.5 Z M 251.5,423.5 C 262.601,423.64 267.101,429.307 265,440.5C 261.968,449.14 256.635,450.807 249,445.5C 245.372,439.809 244.705,433.809 247,427.5C 248.397,425.93 249.897,424.596 251.5,423.5 Z M 250.5,471.5 C 257.342,471.039 264.009,471.872 270.5,474C 276.422,481.205 275.088,486.871 266.5,491C 259.872,493.244 253.538,492.577 247.5,489C 241.481,481.968 242.481,476.134 250.5,471.5 Z"/>
  </g>
  <g>
    <path style="opacity: 0.919; fill: rgb(255, 255, 255);" d="M 311.5,417.5 C 335.949,417.463 345.449,429.463 340,453.5C 332.529,467.483 321.029,472.65 305.5,469C 294.938,464.089 289.605,455.755 289.5,444C 290.501,429.838 297.834,421.005 311.5,417.5 Z M 311.5,423.5 C 319.783,423.721 325.283,427.721 328,435.5C 330.503,444.129 329.836,452.462 326,460.5C 314.71,466.03 307.043,462.697 303,450.5C 300.221,441.691 301.388,433.525 306.5,426C 308.315,425.243 309.981,424.41 311.5,423.5 Z"/>
  </g>
</svg>