<?xml version="1.0" encoding="utf-8"?>
<svg version="1.0" width="683.000000pt" height="342.000000pt" viewBox="0 0 683.000000 342.000000" preserveAspectRatio="xMidYMid meet" xmlns="http://www.w3.org/2000/svg">
  <g transform="translate(0.000000,342.000000) scale(0.100000,-0.100000)" fill="#000000" stroke="none">
    <path d="M3276 3236 c3 -14 1 -27 -6 -31 -9 -5 -10 -1 -6 13 9 26 -16 34 -84 27 -25 -2 -54 -5 -65 -5 -11 0 -38 -6 -60 -12 -40 -12 -50 -14 -94 -17 -28 -1 -21 -13 10 -18 12 -2 18 1 14 7 -9 14 8 12 29 -3 15 -11 11 -12 -26 -12 -24 1 -48 4 -54 8 -14 8 -164 -41 -164 -54 0 -6 -5 -7 -10 -4 -14 9 -80 -17 -73 -28 4 -6 1 -7 -6 -3 -7 5 -21 0 -33 -11 -12 -10 -19 -13 -15 -7 3 6 -23 0 -58 -14 -35 -14 -62 -29 -59 -34 3 -4 -1 -5 -9 -2 -8 3 -23 -3 -32 -13 -10 -10 -20 -16 -22 -14 -7 6 -63 -21 -63 -31 0 -5 6 -6 13 -2 9 5 9 3 -1 -7 -10 -11 -15 -11 -21 -1 -5 9 -12 8 -27 -4 -17 -14 -17 -15 -1 -10 11 4 16 2 12 -5 -4 -5 -15 -7 -24 -4 -19 6 -130 -52 -168 -88 -13 -11 -23 -17 -23 -12 0 5 -5 4 -12 -3 -9 -9 -9 -15 -1 -23 6 -6 9 -18 6 -26 -5 -12 -7 -12 -14 -1 -7 11 -9 10 -9 -1 0 -11 -3 -11 -17 2 -16 13 -20 14 -37 1 -11 -8 -16 -14 -10 -14 5 0 2 -4 -6 -10 -8 -5 -11 -13 -6 -17 5 -4 11 -3 13 3 2 6 10 20 18 30 14 18 15 17 7 -6 -4 -14 -7 -35 -6 -47 0 -12 -2 -20 -7 -17 -4 2 -5 12 -2 22 6 15 5 15 -10 3 -9 -7 -14 -17 -11 -22 3 -5 -3 -6 -12 -2 -12 4 -15 3 -10 -5 11 -17 -9 -15 -24 3 -11 13 -10 15 1 10 19 -6 49 14 31 22 -6 2 -9 10 -5 16 4 7 -7 1 -24 -13 -29 -24 -30 -26 -15 -45 10 -12 11 -15 2 -7 -22 19 -32 14 -19 -9 7 -13 7 -19 1 -15 -6 3 -13 2 -17 -4 -3 -5 -12 -10 -18 -10 -7 0 -4 6 5 14 10 7 15 16 12 19 -8 8 -88 -46 -106 -71 -7 -10 -28 -28 -46 -41 -18 -12 -30 -26 -28 -30 3 -4 -8 -18 -24 -31 -21 -18 -26 -28 -20 -40 6 -12 5 -17 -5 -17 -8 0 -12 4 -9 9 3 4 -2 5 -10 2 -19 -7 -21 -35 -3 -53 10 -11 9 -13 -6 -7 -10 3 -21 6 -23 6 -3 0 -2 5 1 10 3 6 4 10 1 10 -14 0 -70 -98 -68 -120 1 -18 -1 -21 -7 -11 -6 10 -19 -6 -44 -60 -43 -90 -61 -153 -52 -188 4 -21 3 -23 -5 -11 -9 11 -10 0 -6 -45 3 -33 10 -61 16 -63 5 -2 8 -8 4 -13 -3 -5 -2 -15 3 -21 4 -7 8 -19 9 -25 4 -23 46 -83 54 -78 5 3 7 12 4 19 -3 8 -1 16 4 20 12 7 8 -29 -5 -46 -9 -10 -5 -20 14 -42 20 -23 27 -26 34 -15 5 8 6 21 3 29 -4 12 -3 12 7 3 9 -9 8 -17 -4 -37 -15 -22 -15 -25 0 -38 14 -11 16 -11 10 4 -3 10 1 22 11 30 15 12 16 11 4 -4 -8 -10 -9 -19 -3 -22 5 -3 11 0 14 6 3 7 4 -3 4 -22 -2 -33 0 -35 30 -35 18 0 32 -5 30 -10 -1 -6 -5 -9 -8 -8 -3 1 -6 -5 -6 -13 0 -12 3 -12 23 1 33 22 43 18 14 -5 -14 -11 -19 -20 -12 -20 7 0 11 -4 8 -9 -3 -4 11 -21 31 -37 20 -16 52 -43 72 -59 100 -85 137 -103 173 -85 23 11 23 11 -1 -8 l-23 -19 29 -21 c17 -12 33 -19 37 -15 3 3 6 1 6 -6 0 -8 7 -11 15 -7 8 3 15 1 15 -5 0 -6 7 -8 16 -5 14 5 15 4 5 -8 -11 -13 -9 -15 8 -11 11 2 24 -1 27 -7 4 -7 2 -8 -4 -4 -7 4 -12 3 -12 -2 0 -6 7 -12 15 -16 8 -3 18 -7 22 -8 3 -2 24 -20 46 -40 23 -20 44 -35 49 -32 4 3 8 0 8 -6 0 -6 5 -8 11 -4 8 4 7 9 -2 15 -7 4 -17 5 -23 2 -5 -4 -7 1 -3 11 6 14 3 17 -8 12 -9 -3 -18 1 -21 9 -4 8 -11 12 -18 8 -6 -3 -8 -3 -4 2 10 11 -10 45 -25 41 -6 -1 -9 -1 -4 1 13 8 7 23 -10 24 -12 1 -10 4 7 9 17 5 19 8 8 9 -10 1 -18 5 -18 11 0 6 10 5 25 -2 15 -7 21 -14 15 -18 -7 -4 -3 -21 11 -48 12 -23 26 -39 31 -36 15 9 58 -39 47 -53 -7 -8 -7 -18 0 -32 8 -13 8 -22 1 -26 -6 -4 -8 -10 -5 -15 3 -5 0 -12 -6 -16 -8 -4 -9 -3 -5 4 4 7 1 12 -6 12 -9 0 -9 3 2 10 13 8 13 10 -1 10 -9 0 -19 -3 -23 -7 -3 -4 -12 -8 -19 -9 -7 -1 -21 -5 -32 -9 -13 -4 -12 -1 5 8 14 9 29 13 34 10 5 -4 6 -1 2 5 -5 9 -16 7 -38 -6 -17 -9 -45 -25 -62 -34 -27 -15 -28 -23 -4 -19 8 1 4 -26 -6 -36 -4 -4 -6 -1 -4 7 2 10 -3 14 -16 12 -12 -2 -16 1 -11 10 3 7 0 4 -9 -6 -8 -10 -13 -23 -9 -29 3 -6 1 -7 -6 -3 -6 4 -8 12 -5 18 4 6 -2 5 -15 -2 -12 -6 -19 -15 -15 -21 9 -15 -16 -39 -40 -38 -21 0 -21 0 2 9 12 5 22 14 22 19 0 14 -70 -28 -71 -42 -1 -7 -1 -16 0 -21 1 -5 -4 -4 -12 2 -11 10 -20 6 -43 -15 -16 -15 -32 -27 -35 -26 -4 1 -15 -7 -24 -17 -10 -11 -15 -20 -10 -20 4 0 2 -7 -5 -15 -7 -8 -17 -15 -23 -15 -6 0 -2 7 9 15 10 8 14 15 7 15 -15 0 -134 -130 -127 -141 2 -4 -4 -17 -16 -29 -30 -30 -55 -99 -41 -113 8 -8 11 -6 12 9 1 10 1 25 0 32 -1 6 2 12 8 12 5 0 8 -6 7 -12 -2 -7 -7 -33 -11 -57 l-8 -44 -13 29 c-12 26 -13 21 -12 -58 0 -49 5 -88 10 -88 5 0 8 -6 7 -12 -4 -35 1 -50 14 -40 10 8 13 6 13 -8 0 -10 -5 -16 -11 -13 -10 6 24 -35 56 -69 19 -19 99 -48 135 -48 13 0 40 6 59 14 25 11 34 11 32 3 -3 -17 87 -12 138 7 22 8 33 15 25 15 -13 1 -13 2 0 11 21 13 33 12 24 -2 -5 -8 -2 -9 10 -5 10 4 20 7 22 7 2 0 4 5 4 11 0 5 -6 7 -12 3 -8 -4 -10 -3 -5 2 5 5 12 9 15 10 36 3 91 27 86 36 -5 7 -2 9 8 5 22 -8 30 3 15 22 -11 14 -10 14 6 2 16 -13 21 -12 40 9 12 12 15 20 7 16 -8 -4 -6 0 4 8 13 11 15 16 6 16 -7 0 -10 3 -7 6 3 4 2 14 -3 24 -7 13 -5 16 13 15 12 -1 20 -6 17 -11 -3 -5 -9 -8 -15 -6 -5 2 -5 -2 1 -8 9 -9 18 -8 37 5 39 25 80 82 65 91 -7 4 -8 3 -4 -5 5 -7 2 -10 -6 -9 -7 2 -12 -2 -11 -9 1 -6 -3 -13 -10 -16 -7 -3 -13 3 -13 13 0 10 3 18 6 18 18 -2 23 4 10 12 -11 8 -8 9 14 6 34 -6 59 18 50 48 -4 12 -2 16 5 12 6 -4 15 4 21 19 13 33 13 38 0 30 -6 -4 -5 5 2 19 6 14 14 26 18 26 12 0 33 127 26 155 -4 14 -2 25 4 25 11 0 14 43 3 54 -4 4 -6 25 -4 46 2 30 -1 40 -13 40 -8 0 -18 4 -21 10 -3 6 1 7 9 4 19 -7 19 -3 5 47 -7 21 -18 40 -27 44 -10 4 -12 0 -8 -10 4 -10 2 -14 -5 -9 -8 4 -9 -1 -4 -17 7 -23 7 -23 -8 -4 -14 18 -13 22 11 44 22 20 23 23 6 17 -15 -4 -21 -2 -21 10 0 10 7 14 19 11 14 -4 17 -2 9 7 -7 8 -5 12 10 13 11 1 17 -2 14 -7 -3 -5 8 -2 25 8 26 15 28 19 14 29 -14 10 -13 13 6 23 17 9 25 9 34 -1 8 -9 7 -11 -6 -6 -10 3 -20 2 -23 -3 -3 -4 0 -10 7 -12 17 -6 99 42 92 53 -3 5 6 9 20 9 14 0 28 5 31 10 4 6 15 8 25 5 12 -4 22 1 28 12 9 15 10 13 9 -8 -2 -20 -7 -25 -23 -23 -11 1 -21 -3 -21 -10 0 -6 -8 -37 -18 -69 -9 -32 -15 -67 -12 -78 3 -10 1 -22 -4 -25 -10 -6 -13 -207 -3 -217 4 -4 8 -21 9 -39 2 -18 8 -34 14 -36 6 -2 9 -7 6 -12 -7 -11 15 -70 27 -70 5 0 7 -4 4 -9 -6 -9 47 -81 70 -94 10 -6 12 -3 9 10 -3 10 0 8 6 -4 9 -17 21 -23 45 -23 18 0 35 4 39 10 3 5 11 7 18 4 16 -6 67 32 67 49 0 7 -7 4 -14 -5 -7 -10 -17 -18 -21 -18 -5 0 0 9 10 20 9 10 20 19 24 18 18 -2 22 3 12 16 -9 11 -8 14 6 12 11 0 17 5 15 14 -2 8 4 20 13 26 9 7 18 18 19 26 1 7 12 29 24 48 12 19 21 49 21 65 -1 29 -1 30 -9 5 -7 -22 -8 -20 -7 11 1 20 7 36 14 36 6 0 9 -6 6 -13 -2 -6 1 -15 8 -20 8 -4 10 -3 5 4 -4 7 -2 12 5 12 6 0 9 8 6 20 -3 12 -1 18 5 14 7 -5 9 3 5 22 -3 16 -4 23 0 15 5 -11 7 -11 14 0 5 8 9 -37 9 -111 0 -92 3 -120 11 -107 8 14 14 16 25 6 11 -9 14 -8 15 2 0 8 5 3 10 -10 7 -18 5 -35 -6 -63 -11 -29 -12 -38 -2 -39 6 -1 29 -3 50 -4 32 -3 45 2 78 32 21 19 52 56 68 83 27 44 28 50 15 69 -8 11 -14 21 -12 22 25 6 37 6 32 -2 -3 -5 -2 -9 3 -9 4 0 19 19 31 41 13 23 19 38 14 35 -12 -7 -8 32 4 43 4 3 4 -2 1 -11 -8 -21 8 -24 16 -4 3 8 0 20 -8 26 -10 8 -17 6 -30 -12 -15 -21 -16 -21 -11 -2 3 11 0 29 -8 40 -13 17 -12 21 1 37 10 10 12 17 5 17 -6 0 -21 -19 -32 -43 -12 -23 -14 -34 -7 -24 13 16 15 16 21 2 3 -9 2 -13 -4 -10 -13 8 -13 -1 1 -28 9 -20 9 -20 -4 -4 -8 9 -20 17 -27 17 -9 0 -7 -7 6 -22 10 -13 15 -20 10 -16 -5 4 -16 2 -25 -5 -14 -11 -14 -10 -2 5 8 11 9 18 3 18 -6 0 -18 -14 -26 -31 -14 -28 -14 -33 -1 -43 12 -9 9 -11 -18 -11 l-33 0 2 70 c2 39 7 85 13 104 7 23 7 40 0 53 -8 15 -8 23 1 32 8 8 10 7 5 -7 -4 -10 -2 -17 4 -17 17 0 13 40 -4 46 -8 4 -15 11 -15 17 0 7 4 7 12 -1 7 -7 15 -12 19 -12 10 0 31 89 24 101 -4 5 -2 9 2 9 8 0 36 93 48 158 4 23 -18 43 -61 56 -20 6 -70 -25 -58 -36 3 -3 -1 -8 -9 -11 -11 -4 -12 6 -5 52 10 68 1 146 -18 162 -17 14 -17 13 -5 -29 12 -41 7 -41 -14 0 -15 30 -15 34 2 45 15 12 14 13 -13 14 -18 1 -22 3 -11 6 16 4 15 7 -8 19 -30 15 -120 20 -96 5 7 -5 21 -7 30 -6 9 1 10 0 3 -2 -7 -3 -9 -9 -6 -15 4 -7 2 -8 -4 -4 -7 4 -12 2 -12 -4 0 -6 -5 -8 -11 -4 -8 4 -7 9 2 16 10 7 8 8 -9 5 -12 -3 -20 -1 -16 4 15 24 -23 5 -55 -29 -44 -45 -64 -55 -81 -39 -10 10 -10 7 -1 -10 7 -15 17 -20 29 -17 14 5 15 4 2 -5 -10 -7 -19 -6 -31 5 -8 7 -18 14 -21 14 -13 0 -49 -70 -42 -82 5 -10 4 -10 -6 -1 -11 10 -10 17 5 40 l18 28 -26 -24 c-15 -13 -24 -27 -22 -31 3 -5 -2 -11 -10 -14 -14 -5 -40 -52 -37 -67 1 -3 -10 -4 -23 -1 -23 4 -29 -3 -27 -29 1 -3 -5 -6 -13 -6 -8 0 -12 4 -9 9 3 4 -2 5 -10 2 -9 -3 -13 -11 -10 -16 4 -6 1 -8 -7 -6 -8 3 -31 -3 -51 -14 -36 -17 -44 -35 -24 -50 5 -3 -2 -5 -17 -5 -21 2 -23 5 -14 16 7 8 -21 -3 -62 -24 -67 -35 -72 -40 -52 -49 13 -5 20 -15 16 -23 -3 -11 1 -13 18 -8 19 5 20 4 4 -5 -20 -13 -41 -4 -31 12 5 7 1 9 -9 5 -9 -3 -18 0 -21 9 -4 11 -10 12 -30 2 -14 -6 -23 -14 -21 -19 3 -4 1 -10 -5 -14 -5 -3 -10 -2 -10 4 0 6 -7 8 -16 4 -10 -4 -33 11 -67 43 -28 27 -48 45 -44 40 4 -5 1 -16 -6 -24 -10 -13 -9 -15 6 -9 11 4 20 1 23 -8 4 -8 11 -12 17 -8 6 4 7 1 2 -7 -5 -8 -4 -11 2 -7 6 4 17 -3 26 -16 13 -20 13 -24 -1 -37 -14 -13 -15 -12 -9 3 8 20 -2 49 -13 42 -5 -3 -11 -1 -15 5 -4 7 -12 7 -26 0 -10 -6 -19 -9 -20 -8 -5 19 -4 50 3 54 4 3 3 14 -3 26 -7 14 -14 17 -21 10 -6 -6 -17 -8 -24 -5 -10 4 -12 0 -8 -13 4 -11 4 -16 0 -12 -4 3 -9 14 -11 25 -1 10 -7 17 -11 16 -5 -1 -10 10 -11 25 -1 24 0 24 10 7 17 -32 47 -47 47 -23 0 6 -3 8 -6 5 -4 -4 -16 3 -28 16 -31 33 -80 74 -72 60 3 -6 2 -14 -4 -18 -5 -3 -11 -1 -11 4 -1 6 -2 15 -3 20 0 5 -26 30 -57 55 -55 45 -83 60 -59 31 10 -12 9 -16 -4 -21 -20 -8 -48 14 -44 35 1 9 -2 23 -7 31 -8 13 -7 13 9 1 9 -8 14 -21 11 -29 -3 -9 0 -19 7 -24 20 -12 32 -9 19 5 -6 8 -8 16 -5 19 8 9 -68 68 -79 61 -6 -3 -7 -1 -4 4 4 6 -9 25 -28 42 -20 17 -32 31 -28 31 3 0 -5 12 -18 27 -26 29 -60 79 -59 88 0 3 -11 26 -24 53 -19 37 -23 59 -20 102 3 38 1 50 -6 40 -5 -8 -10 -10 -10 -4 0 5 5 15 11 21 6 6 11 27 12 47 1 20 4 36 7 36 4 0 11 15 17 34 8 27 8 33 -2 30 -7 -3 -15 4 -18 16 -5 18 -3 19 11 8 13 -11 15 -11 10 3 -5 12 -2 16 11 12 11 -3 21 4 28 19 6 13 26 44 46 69 41 55 36 85 -8 46 -20 -17 -28 -33 -28 -55 0 -17 -4 -29 -9 -26 -4 3 -8 -4 -8 -15 0 -11 -4 -22 -9 -26 -6 -3 -6 7 0 27 5 18 6 42 3 53 -4 16 -3 17 5 5 9 -12 11 -11 11 8 0 13 -4 21 -9 18 -5 -3 -8 4 -7 17 0 15 8 24 20 25 14 1 16 -2 7 -11 -6 -6 -11 -16 -11 -21 1 -6 8 -2 18 9 17 21 38 25 58 12 7 -4 27 11 48 36 51 59 55 64 50 69 -2 3 5 13 16 23 11 10 20 13 20 7 0 -7 -4 -12 -10 -12 -5 0 -10 -5 -10 -10 0 -7 6 -7 20 0 29 15 25 40 -5 40 -14 0 -25 -4 -25 -10 0 -5 -5 -10 -10 -10 -6 0 -6 7 1 19 12 19 41 18 67 -2 11 -9 16 -3 13 15 0 4 7 4 16 1 11 -4 14 -3 9 5 -4 7 3 14 19 18 13 3 22 10 19 15 -8 14 -14 52 -6 45 4 -4 7 -13 7 -19 0 -5 6 -12 14 -15 10 -3 13 2 8 19 -4 20 -4 21 6 8 10 -15 14 -15 49 8 32 22 36 28 26 41 -11 13 -10 14 8 4 26 -14 68 8 44 23 -8 5 -11 4 -7 -1 8 -14 -30 -15 -42 -1 -7 9 -1 12 22 12 18 0 38 -4 45 -8 7 -5 12 -4 12 3 0 6 3 9 8 6 13 -8 44 22 36 36 -5 9 -2 8 11 -2 15 -12 17 -12 10 -1 -6 11 -4 13 9 8 10 -4 19 -1 22 8 4 8 11 12 17 8 6 -4 7 -1 2 7 -6 10 -4 12 7 8 8 -4 31 3 49 15 19 12 37 21 40 22 3 0 29 11 56 24 38 17 50 28 46 40 -4 13 -3 13 5 2 8 -11 14 -10 35 4 15 9 32 13 38 9 8 -5 9 -3 5 5 -5 8 -3 11 5 10 28 -6 119 32 119 49 0 11 3 13 8 5 8 -12 62 -6 62 8 0 5 8 6 18 2 9 -3 13 -2 9 2 -4 5 3 15 15 22 l23 12 -25 2 c-14 1 -35 0 -47 0 -11 -1 -23 1 -26 6 -3 4 25 7 61 6 92 -2 91 -1 52 -24 -19 -11 -26 -17 -15 -13 11 3 30 9 43 11 12 3 22 8 22 12 0 4 19 7 43 7 23 0 77 5 120 12 97 15 190 15 282 0 84 -13 104 -14 130 -4 19 7 19 7 2 -7 -17 -14 -14 -16 33 -28 27 -7 50 -16 50 -21 0 -4 4 -8 10 -8 15 0 0 28 -18 33 -13 3 -11 5 4 6 20 1 25 -7 35 -49 3 -13 22 -29 30 -24 5 3 14 -6 21 -20 6 -14 16 -26 21 -26 6 0 8 -3 4 -6 -3 -3 1 -23 8 -44 7 -21 11 -41 8 -44 -4 -3 1 -6 10 -6 13 0 14 -6 6 -32 -5 -17 -7 -34 -4 -36 3 -3 1 -10 -3 -16 -5 -6 -19 -40 -32 -76 -12 -36 -37 -88 -55 -115 -17 -28 -32 -57 -33 -65 -2 -31 -9 -55 -15 -52 -4 1 -9 2 -12 2 -3 0 3 12 12 27 10 15 -26 -17 -79 -71 -54 -54 -98 -102 -98 -107 0 -5 -5 -9 -11 -9 -5 0 -7 5 -4 10 4 6 -22 -8 -56 -30 -35 -22 -66 -45 -70 -51 -3 -6 -8 -9 -10 -8 -7 5 -137 -59 -144 -71 -3 -5 -12 -10 -18 -10 -7 0 -6 4 3 10 8 5 10 10 5 10 -6 0 -20 -7 -31 -15 -12 -8 -24 -12 -26 -9 -3 2 -11 -2 -18 -11 -7 -8 -18 -15 -24 -15 -6 0 -4 5 4 11 11 8 9 9 -10 3 -40 -11 -56 -45 -17 -38 22 5 22 5 0 -5 -12 -6 -33 -6 -50 -1 -24 7 -25 8 -5 9 12 1 22 6 22 12 0 6 -7 8 -17 5 -9 -4 -37 -10 -61 -13 -43 -6 -44 -6 -21 -20 16 -10 18 -12 5 -8 -36 11 -116 16 -116 8 0 -8 -171 2 -197 12 -7 2 -13 0 -13 -5 0 -6 -7 -10 -16 -10 -8 0 -13 4 -10 9 6 9 -36 31 -61 31 -9 0 -42 22 -74 50 -56 49 -79 60 -79 40 0 -5 4 -10 10 -10 5 0 7 -7 4 -15 -7 -16 42 -95 58 -95 5 0 6 5 2 12 -4 6 -3 8 4 4 6 -3 16 2 22 11 11 17 11 17 6 0 -5 -14 -1 -16 22 -11 l27 6 -25 -14 c-14 -8 -28 -10 -31 -5 -3 5 -9 1 -13 -9 -4 -10 -4 -15 0 -11 4 4 13 -2 21 -13 8 -11 23 -20 33 -20 10 0 20 -3 23 -7 2 -5 2 -3 1 4 -2 6 4 14 12 17 8 3 12 2 9 -3 -3 -6 3 -15 12 -21 17 -11 17 -11 1 -6 -27 8 -21 -9 7 -22 33 -15 39 -15 29 1 -5 7 -2 5 7 -4 35 -38 265 -51 424 -24 50 9 99 17 110 19 11 2 47 11 80 21 33 10 65 19 71 21 36 7 54 17 48 26 -4 7 -2 8 5 4 16 -10 53 3 45 16 -4 6 1 8 13 4 12 -4 25 -1 33 9 7 8 16 12 21 9 5 -3 6 2 3 10 -3 9 -11 13 -17 9 -6 -4 -7 -1 -3 6 6 9 12 8 26 -4 17 -16 20 -15 38 3 11 11 23 18 26 15 2 -3 4 8 4 23 -1 43 1 54 10 54 12 0 11 -32 0 -47 -6 -7 -4 -14 4 -19 7 -4 10 -4 6 1 -4 4 0 14 8 22 8 8 12 19 9 24 -4 5 1 6 10 3 13 -5 13 -9 3 -23 -16 -20 57 32 99 72 18 17 30 34 26 40 -3 5 -9 4 -13 -3 -5 -8 -9 -7 -13 4 -4 9 -2 16 3 16 6 0 10 8 11 18 0 13 2 12 9 -5 5 -13 13 -23 18 -23 10 0 81 74 115 120 18 25 23 40 17 50 -5 8 -10 20 -10 25 0 6 4 4 9 -4 13 -21 36 0 67 61 23 45 33 78 15 49 -6 -9 -11 -10 -15 -3 -4 6 2 16 13 21 26 14 45 69 30 88 -9 11 -8 12 5 7 20 -8 21 3 1 22 -8 9 -15 20 -15 27 0 6 7 2 15 -9 13 -17 14 -17 15 -2 0 9 -5 20 -10 23 -7 4 -8 24 -4 50 5 38 4 43 -13 42 -11 -1 -23 -15 -30 -37 l-13 -35 6 35 c3 19 6 49 7 67 2 37 17 33 18 -5 0 -15 3 -21 6 -14 2 6 9 9 15 6 7 -5 9 3 4 22 -4 16 -12 31 -17 35 -6 3 -3 11 6 19 21 17 19 38 -10 97 -27 54 -50 72 -59 47 -8 -20 -19 -18 -34 7 -8 12 -9 18 -3 15 5 -4 12 -2 15 3 3 5 -1 12 -10 15 -9 4 -14 9 -10 13 3 3 15 -2 26 -12 11 -10 22 -16 25 -13 5 5 -62 64 -94 83 -10 6 -13 4 -9 -7 4 -9 0 -15 -8 -15 -8 0 -14 5 -14 10 0 5 -13 7 -31 3 -27 -5 -29 -4 -15 10 12 11 20 12 36 4 12 -6 20 -7 20 -1 0 11 -111 66 -150 75 -21 5 -21 4 5 -9 17 -8 23 -14 14 -15 -9 0 -28 10 -43 21 -15 12 -30 19 -33 15 -4 -3 -1 -6 5 -6 7 0 12 -3 12 -8 0 -4 -51 -7 -113 -7 -94 0 -111 2 -100 13 7 7 17 11 22 7 17 -10 151 -14 151 -5 0 19 -46 33 -112 34 -37 0 -68 4 -68 9 0 4 -41 7 -90 7 -90 0 -90 0 -84 -24z m-96 -6 c-8 -5 -24 -9 -35 -9 -16 1 -16 2 5 9 35 11 48 11 30 0z m330 0 c13 -8 13 -10 -2 -10 -9 0 -20 5 -23 10 -8 13 5 13 25 0z m-267 -7 c-7 -2 -19 -2 -25 0 -7 3 -2 5 12 5 14 0 19 -2 13 -5z m330 0 c-7 -2 -21 -2 -30 0 -10 3 -4 5 12 5 17 0 24 -2 18 -5z m-361 -35 c-26 -10 -39 -9 -22 2 11 7 11 10 2 10 -7 0 -10 4 -7 10 4 6 13 5 25 -3 19 -11 19 -12 2 -19z m-52 12 c0 -5 -7 -7 -15 -4 -8 4 -15 8 -15 10 0 2 7 4 15 4 8 0 15 -4 15 -10z m-36 -9 c4 -5 -3 -7 -14 -4 -23 6 -26 13 -6 13 8 0 17 -4 20 -9z m-244 -25 c0 -2 -7 -6 -15 -10 -8 -3 -15 -1 -15 4 0 6 7 10 15 10 8 0 15 -2 15 -4z m920 -6 c18 -12 2 -12 -25 0 -13 6 -15 9 -5 9 8 0 22 -4 30 -9z m-120 -4 c0 -3 -4 -8 -10 -11 -5 -3 -10 -1 -10 4 0 6 5 11 10 11 6 0 10 -2 10 -4z m-858 -13 c-19 -4 -21 -7 -11 -19 6 -8 18 -14 27 -14 8 0 13 -2 10 -5 -3 -4 -17 -3 -31 0 -22 6 -26 16 -18 43 1 1 11 1 24 1 l22 -2 -23 -4z m48 -13 c-8 -6 -22 -10 -30 -9 -9 0 -5 6 10 14 27 14 44 10 20 -5z m317 14 c-3 -3 -12 -4 -19 -1 -8 3 -5 6 6 6 11 1 17 -2 13 -5z m-423 -32 c2 -4 -6 -7 -20 -7 -32 2 -39 10 -9 13 13 1 26 -2 29 -6z m593 -18 c-3 -4 -25 -10 -47 -14 -23 -4 -38 -4 -33 0 12 12 92 26 80 14z m113 -8 c0 -2 -9 -6 -20 -9 -11 -3 -18 -1 -14 4 5 9 34 13 34 5z m-237 -23 c-7 -2 -19 -2 -25 0 -7 3 -2 5 12 5 14 0 19 -2 13 -5z m677 -3 c0 -5 -2 -10 -4 -10 -3 0 -8 5 -11 10 -3 6 -1 10 4 10 6 0 11 -4 11 -10z m-1335 -9 c-19 -8 -19 -8 0 -19 19 -10 19 -11 -2 -9 -12 0 -19 5 -17 9 3 4 -3 8 -13 9 -16 0 -16 1 2 9 11 5 27 9 35 9 9 0 8 -3 -5 -8z m858 2 c-7 -2 -21 -2 -30 0 -10 3 -4 5 12 5 17 0 24 -2 18 -5z m122 -3 c-3 -5 -13 -10 -21 -10 -8 0 -14 5 -14 10 0 6 9 10 21 10 11 0 17 -4 14 -10z m155 -52 c0 -6 -6 -5 -15 2 -8 7 -15 14 -15 16 0 2 7 1 15 -2 8 -4 15 -11 15 -16z m60 12 c-8 -5 -19 -10 -25 -10 -5 0 -3 5 5 10 8 5 20 10 25 10 6 0 3 -5 -5 -10z m90 0 c0 -5 -5 -10 -11 -10 -5 0 -7 5 -4 10 3 6 8 10 11 10 2 0 4 -4 4 -10z m-1415 -20 c-3 -5 -12 -10 -18 -10 -7 0 -6 4 3 10 19 12 23 12 15 0z m514 -6 c2 -2 -10 -4 -27 -4 -17 0 -34 4 -37 10 -5 9 53 3 64 -6z m-22 -20 c-3 -3 -12 -4 -19 -1 -8 3 -5 6 6 6 11 1 17 -2 13 -5z m1093 -24 c0 -5 -5 -10 -11 -10 -5 0 -7 5 -4 10 3 6 8 10 11 10 2 0 4 -4 4 -10z m-1194 -12 c-10 -6 -22 -6 -26 -2 -5 5 3 10 18 11 22 1 24 0 8 -9z m964 2 c0 -5 -2 -10 -4 -10 -3 0 -8 5 -11 10 -3 6 -1 10 4 10 6 0 11 -4 11 -10z m36 -16 c2 -23 1 -24 -11 -7 -10 13 -10 20 -2 25 7 4 12 8 12 8 0 0 1 -11 1 -26z m-1523 0 c8 -8 -3 -34 -15 -34 -6 0 -4 7 3 16 12 15 11 16 -11 9 -14 -4 -35 -13 -47 -21 -13 -8 -23 -10 -23 -5 0 5 17 16 38 24 43 18 47 19 55 11z m357 2 c0 -2 -8 -10 -17 -17 -16 -13 -17 -12 -4 4 13 16 21 21 21 13z m80 -5 c0 -5 -7 -12 -16 -15 -14 -5 -15 -4 -4 9 14 17 20 19 20 6z m37 3 c-3 -3 -12 -4 -19 -1 -8 3 -5 6 6 6 11 1 17 -2 13 -5z m1248 -3 c3 -5 1 -12 -5 -16 -5 -3 -10 1 -10 9 0 18 6 21 15 7z m-1665 -11 c0 -5 -8 -10 -17 -10 -15 0 -16 2 -3 10 19 12 20 12 20 0z m-90 -28 c0 -4 -9 -8 -19 -8 -11 0 -17 4 -15 8 3 4 12 8 20 8 8 0 14 -4 14 -8z m362 -24 c-8 -8 -9 -4 -5 13 4 13 8 18 11 10 2 -7 -1 -18 -6 -23z m-39 2 c3 -3 -11 -6 -30 -7 -20 -1 -45 -11 -57 -22 -31 -29 -44 -26 -17 3 13 13 18 25 12 27 -6 2 11 4 38 4 27 0 52 -2 54 -5z m1308 -17 c-12 -20 -14 -14 -5 12 4 9 9 14 11 11 3 -2 0 -13 -6 -23z m-44 -5 c-3 -8 -6 -5 -6 6 -1 11 2 17 5 13 3 -3 4 -12 1 -19z m-1291 -10 c4 -6 3 -8 -3 -5 -6 4 -22 -3 -37 -14 -14 -11 -26 -18 -26 -14 0 9 23 31 40 38 8 3 16 6 17 6 1 1 5 -4 9 -11z m1311 -30 c-3 -7 -5 -2 -5 12 0 14 2 19 5 13 2 -7 2 -19 0 -25z m-1436 -21 c-6 -8 -7 -17 -3 -22 4 -4 -3 -3 -14 3 -12 6 -25 8 -29 4 -5 -4 -5 -2 -1 5 4 7 13 10 21 6 8 -3 15 0 15 6 0 6 5 11 11 11 8 0 9 -4 0 -13z m1458 -64 c0 -32 -3 -42 -8 -29 -7 18 -3 76 5 76 2 0 4 -21 3 -47z m108 5 c-3 -7 -5 -2 -5 12 0 14 2 19 5 13 2 -7 2 -19 0 -25z m0 -50 c-3 -7 -5 -2 -5 12 0 14 2 19 5 13 2 -7 2 -19 0 -25z m-1947 14 c0 -5 -7 -9 -15 -9 -8 0 -12 4 -9 9 3 4 9 8 15 8 5 0 9 -4 9 -8z m-167 -29 c-6 -16 -5 -16 10 -4 11 9 17 10 17 2 0 -6 -3 -11 -7 -12 -5 0 -21 -2 -36 -4 l-29 -4 23 20 c27 23 30 24 22 2z m356 -9 c-6 -8 -15 -12 -18 -8 -3 4 0 9 7 11 6 3 9 10 6 15 -4 7 -2 8 5 4 9 -6 9 -11 0 -22z m1621 -31 c-11 -17 -11 -17 -6 0 3 10 7 28 7 40 2 22 2 22 6 0 2 -12 -1 -30 -7 -40z m-1910 37 c0 -5 -5 -10 -11 -10 -5 0 -7 5 -4 10 3 6 8 10 11 10 2 0 4 -4 4 -10z m1947 -42 c-3 -8 -6 -5 -6 6 -1 11 2 17 5 13 3 -3 4 -12 1 -19z m113 -6 c0 -8 -1 -13 -3 -11 -1 2 -9 12 -16 22 -12 15 -12 17 3 11 9 -3 16 -13 16 -22z m-2194 -14 c4 -7 3 -10 -1 -5 -5 4 -18 -1 -29 -10 -21 -18 -21 -18 -2 5 22 26 23 26 32 10z m2016 -10 c-7 -7 -12 -19 -12 -27 -1 -19 -59 -91 -60 -73 0 6 5 12 10 12 6 0 10 7 10 15 0 9 7 18 15 21 8 4 15 17 15 29 0 13 6 26 13 28 20 9 22 8 9 -5z m-2012 -12 c0 -3 -4 -8 -10 -11 -5 -3 -10 -1 -10 4 0 6 5 11 10 11 6 0 10 -2 10 -4z m72 -18 c-7 -7 -12 -8 -12 -2 0 6 3 14 7 17 3 4 9 5 12 2 2 -3 -1 -11 -7 -17z m2045 -4 c-3 -3 -12 -4 -19 -1 -8 3 -5 6 6 6 11 1 17 -2 13 -5z m-2201 -44 c0 -12 -4 -16 -9 -11 -5 5 -6 14 -3 20 10 15 12 14 12 -9z m124 0 c0 -5 -4 -10 -10 -10 -5 0 -10 5 -10 10 0 6 5 10 10 10 6 0 10 -4 10 -10z m2098 -24 c-1 -14 -6 -22 -10 -20 -12 7 -10 44 2 44 5 0 9 -11 8 -24z m-1969 -18 c-15 -29 -49 -62 -49 -48 0 5 -5 10 -11 10 -6 0 -8 -7 -5 -16 5 -14 4 -15 -9 -4 -17 14 -21 35 -5 25 14 -9 12 8 -2 24 -10 11 -10 13 0 7 6 -4 12 -2 12 3 0 6 5 11 11 11 8 0 8 -4 0 -13 -8 -10 -8 -16 0 -24 13 -13 39 -6 39 9 0 6 -7 7 -16 4 -14 -6 -15 -4 -4 9 10 12 15 13 21 4 4 -8 9 -4 14 10 4 13 9 20 12 18 2 -3 -1 -16 -8 -29z m1927 -5 c-4 -11 -2 -13 9 -10 19 8 26 -5 10 -20 -10 -10 -15 -9 -21 5 -11 25 -13 52 -2 46 5 -3 7 -13 4 -21z m-2262 -39 c3 -8 2 -12 -4 -9 -6 4 -8 -6 -6 -25 3 -23 0 -28 -9 -20 -6 5 -15 7 -18 3 -4 -3 1 -12 11 -19 14 -10 15 -15 4 -26 -11 -11 -12 -10 -7 7 l7 20 -17 -20 c-17 -20 -17 -20 -10 4 5 17 4 21 -5 16 -9 -6 -9 -3 -1 14 7 11 19 21 29 22 10 0 12 3 5 6 -10 3 -10 9 0 24 14 23 13 23 21 3z m2238 -58 c-19 -20 -35 -40 -67 -81 -11 -13 -18 -16 -21 -8 -3 7 -13 9 -22 6 -9 -3 -1 6 18 21 60 45 91 76 85 86 -3 6 1 7 10 4 14 -6 14 -9 -3 -28z m-192 14 c0 -5 -4 -10 -10 -10 -5 0 -10 5 -10 10 0 6 5 10 10 10 6 0 10 -4 10 -10z m154 -14 c-6 -16 -24 -23 -24 -8 0 10 22 33 27 28 2 -2 1 -11 -3 -20z m-119 3 c11 -16 1 -19 -13 -3 -7 8 -8 14 -3 14 5 0 13 -5 16 -11z m-1848 -25 c-12 -12 -23 -21 -25 -19 -7 7 21 42 34 42 8 0 5 -9 -9 -23z m1774 13 c-6 -8 -7 -18 -3 -22 4 -5 2 -5 -5 -1 -10 6 -33 -21 -33 -38 0 -15 20 -4 21 12 0 12 3 10 10 -7 5 -13 7 -26 4 -29 -3 -3 -5 0 -5 7 0 7 -9 6 -26 -5 -16 -11 -21 -20 -14 -24 7 -4 -2 -7 -18 -6 -28 1 -35 16 -8 16 8 0 20 7 27 16 12 15 11 16 -10 9 -21 -6 -17 0 19 39 40 42 68 64 41 33z m49 -7 c0 -5 -4 -10 -10 -10 -5 0 -10 5 -10 10 0 6 5 10 10 10 6 0 10 -4 10 -10z m55 -48 c-3 -3 -11 0 -18 7 -9 10 -8 11 6 5 10 -3 15 -9 12 -12z m-2209 -30 c-18 -16 -18 -16 -6 6 6 13 14 21 18 18 3 -4 -2 -14 -12 -24z m2242 -14 c-2 -6 -10 -14 -16 -16 -7 -2 -10 2 -6 12 7 18 28 22 22 4z m-2229 -36 c0 -14 -2 -13 -9 3 -7 15 -9 10 -9 -22 -1 -24 -5 -43 -9 -43 -8 0 -6 49 4 78 5 18 24 5 23 -16z m2126 -12 c5 -16 12 -19 28 -14 12 3 19 3 14 -1 -4 -5 -17 -9 -29 -10 -12 -1 -24 -7 -26 -13 -2 -8 3 -10 15 -6 15 5 15 4 3 -5 -17 -12 -25 -6 -35 26 -5 19 -3 22 12 16 16 -6 16 -5 4 10 -8 10 -9 17 -3 17 6 0 14 -9 17 -20z m-200 -18 c1 -20 -4 -28 -15 -27 -23 1 -25 8 -9 33 18 29 24 28 24 -6z m-1968 -4 c-3 -8 -6 -5 -6 6 -1 11 2 17 5 13 3 -3 4 -12 1 -19z m1910 -11 c0 -8 -6 -14 -14 -14 -17 0 -17 14 0 20 6 3 12 6 13 6 0 1 1 -5 1 -12z m-1664 -12 c4 -8 1 -17 -5 -21 -7 -4 -8 -3 -4 4 4 7 2 12 -4 12 -6 0 -8 5 -5 10 8 14 12 13 18 -5z m1604 -30 c-9 -8 -21 -15 -27 -15 -7 0 -2 9 11 19 28 22 39 20 16 -4z m268 15 c4 -6 11 -7 17 -4 7 4 8 2 4 -5 -6 -9 -12 -9 -24 1 -10 7 -19 14 -21 15 -2 2 1 3 7 3 6 0 14 -5 17 -10z m-300 -47 c16 -13 17 -15 3 -10 -10 4 -18 2 -18 -4 0 -6 -5 -7 -11 -3 -8 4 -7 9 2 15 11 7 11 9 1 9 -7 0 -15 -7 -19 -16 -5 -13 -7 -13 -14 -2 -5 8 -2 15 9 20 24 9 25 9 47 -9z m115 7 c0 -5 -7 -10 -15 -10 -8 0 -15 5 -15 10 0 6 7 10 15 10 8 0 15 -4 15 -10z m-1697 -17 c-7 -3 -9 -12 -6 -21 4 -14 3 -14 -5 -3 -12 17 -4 43 11 34 8 -5 8 -8 0 -10z m706 0 c-4 -22 3 -32 17 -26 13 5 13 8 2 15 -10 8 -10 9 1 6 23 -6 24 -25 2 -31 -22 -5 -46 16 -36 33 7 12 16 13 14 3z m981 -27 c0 -2 -7 -7 -16 -10 -8 -3 -12 -2 -9 4 6 10 25 14 25 6z m-1953 -53 c1 -24 -2 -32 -8 -22 -11 18 -12 59 -1 59 4 0 9 -16 9 -37z m1100 12 c0 -8 -4 -15 -9 -15 -10 0 -11 14 -1 23 9 10 10 9 10 -8z m703 5 c0 -5 -5 -10 -11 -10 -5 0 -7 5 -4 10 3 6 8 10 11 10 2 0 4 -4 4 -10z m150 6 c0 -2 -7 -7 -16 -10 -8 -3 -12 -2 -9 4 6 10 25 14 25 6z m-290 -21 c-14 -8 -29 -14 -35 -14 -5 0 1 6 15 14 14 8 30 14 35 14 6 0 -1 -6 -15 -14z m-574 -22 c-6 -6 -36 9 -36 18 0 5 9 4 20 -3 10 -7 18 -14 16 -15z m481 11 c-3 -3 -12 -4 -19 -1 -8 3 -5 6 6 6 11 1 17 -2 13 -5z m138 -14 c-3 -5 -11 -10 -16 -10 -6 0 -7 5 -4 10 3 6 11 10 16 10 6 0 7 -4 4 -10z m64 -1 c-17 -11 -39 -12 -39 -1 0 4 12 8 27 9 19 1 22 -1 12 -8z m-572 -5 c-3 -3 -12 -4 -19 -1 -8 3 -5 6 6 6 11 1 17 -2 13 -5z m-37 -14 c0 -5 -4 -10 -10 -10 -5 0 -10 5 -10 10 0 6 5 10 10 10 6 0 10 -4 10 -10z m653 3 c-7 -2 -21 -2 -30 0 -10 3 -4 5 12 5 17 0 24 -2 18 -5z m-618 -13 c-3 -5 -12 -10 -18 -10 -7 0 -6 4 3 10 19 12 23 12 15 0z m512 4 c-3 -3 -12 -4 -19 -1 -8 3 -5 6 6 6 11 1 17 -2 13 -5z m16 -21 c-7 -2 -21 -2 -30 0 -10 3 -4 5 12 5 17 0 24 -2 18 -5z m-1664 -64 c-19 -12 -29 -11 -29 2 0 5 5 7 10 4 6 -3 10 -1 10 4 0 6 -8 11 -17 11 -15 0 -15 2 -4 9 9 6 19 4 29 -6 13 -13 13 -16 1 -24z m1258 35 c-3 -3 -12 -4 -19 -1 -8 3 -5 6 6 6 11 1 17 -2 13 -5z m58 -4 c19 -8 19 -9 -2 -9 -12 -1 -25 4 -28 9 -7 12 2 12 30 0z m52 4 c-3 -3 -12 -4 -19 -1 -8 3 -5 6 6 6 11 1 17 -2 13 -5z m-1167 -24 c0 -11 -4 -20 -9 -20 -5 0 -7 9 -4 20 3 11 7 20 9 20 2 0 4 -9 4 -20z m1223 13 c-7 -2 -21 -2 -30 0 -10 3 -4 5 12 5 17 0 24 -2 18 -5z m-1197 -65 c-10 -6 -22 -6 -26 -2 -5 5 3 10 18 11 22 1 24 0 8 -9z m30 -43 c18 -13 18 -14 -4 -8 -12 3 -25 9 -28 14 -8 14 10 11 32 -6z m-50 -32 c-10 -10 -19 5 -10 18 6 11 8 11 12 0 2 -7 1 -15 -2 -18z m95 -20 c13 -14 18 -23 12 -19 -15 8 -18 -10 -3 -19 6 -3 10 -12 9 -18 0 -9 -2 -8 -6 1 -2 6 -8 10 -12 7 -5 -2 -7 6 -7 18 1 12 -4 30 -12 40 -24 27 -8 20 19 -10z m62 -94 c-8 -8 -13 -7 -18 2 -5 8 -4 10 3 5 7 -4 12 -2 12 3 0 6 -4 11 -9 11 -5 0 -12 8 -15 18 -6 13 -2 12 16 -5 16 -17 19 -26 11 -34z m1141 -24 c-4 -8 -1 -15 6 -15 6 0 8 -5 4 -11 -5 -8 -10 -6 -16 5 -5 9 -6 21 -3 26 9 15 15 12 9 -5z m-1134 -9 c-7 -7 -13 -7 -20 0 -6 6 -3 10 10 10 13 0 16 -4 10 -10z m40 10 c0 -2 -8 -10 -17 -17 -16 -13 -17 -12 -4 4 13 16 21 21 21 13z m1294 -33 c-10 -7 -13 -17 -8 -25 4 -7 -2 -5 -14 5 -20 18 -20 18 -15 -2 3 -12 11 -21 19 -21 8 0 11 -8 9 -21 -6 -29 -15 -37 -16 -13 0 10 -11 -15 -25 -56 -23 -74 -32 -117 -13 -71 5 13 12 21 16 17 4 -3 -4 -20 -16 -37 -13 -18 -24 -44 -25 -60 -1 -15 -5 -31 -9 -36 -5 -4 -5 1 -2 12 6 19 6 19 -5 2 -9 -14 -9 -22 1 -33 10 -12 9 -13 -6 -8 -16 7 -16 5 -1 -24 14 -27 14 -31 1 -26 -8 3 -12 10 -9 15 3 5 1 9 -4 9 -5 0 -17 -21 -26 -47 -10 -27 -21 -56 -27 -65 -5 -10 -9 -32 -9 -48 0 -20 -4 -29 -11 -24 -7 4 -6 -2 2 -17 11 -21 11 -23 -3 -11 -13 10 -17 10 -22 -3 -3 -8 -2 -22 1 -32 4 -10 2 -14 -4 -10 -5 3 -17 -10 -26 -29 -20 -41 -21 -48 -5 -38 7 4 8 3 4 -4 -4 -7 -13 -12 -20 -12 -23 0 -40 -28 -27 -44 9 -10 8 -16 -4 -26 -10 -9 -15 -9 -15 -1 0 6 -5 11 -11 11 -5 0 -8 -3 -5 -8 2 -4 -12 -7 -32 -7 -22 1 -37 7 -40 16 -3 11 -2 11 6 1 7 -10 14 -9 33 7 13 11 18 20 11 21 -6 0 -11 3 -11 8 3 18 -2 33 -9 28 -5 -3 -6 8 -4 25 3 17 0 29 -7 29 -6 0 -11 -7 -11 -17 0 -9 -3 -14 -6 -11 -3 3 0 25 6 48 8 29 8 45 1 54 -8 9 -8 23 0 46 7 18 8 35 3 39 -21 15 -13 74 9 65 8 -3 18 17 28 55 8 33 12 58 7 55 -4 -3 -8 0 -8 5 0 6 4 11 10 11 5 0 19 19 31 41 19 37 19 41 4 35 -15 -5 -16 -4 -5 9 7 8 15 13 19 11 4 -3 7 4 7 14 0 17 -2 18 -16 5 -15 -13 -17 -13 -15 5 1 11 5 23 10 27 4 5 4 2 0 -6 -6 -11 -4 -13 7 -8 9 3 21 0 27 -6 9 -9 10 -8 5 7 -4 11 -3 17 2 14 5 -3 18 6 28 20 11 14 15 23 10 20 -5 -4 -9 7 -9 23 -1 29 15 35 23 9 3 -8 0 -10 -8 -5 -9 6 -11 4 -5 -5 6 -9 18 -2 45 28 21 22 40 38 43 36 3 -3 8 -1 12 5 3 6 -1 11 -9 11 -8 0 -17 3 -19 8 -3 4 27 7 66 6 85 -1 98 2 90 24 -4 15 -3 15 6 2 8 -11 7 -18 -5 -27z m-1451 -13 c8 -8 8 -11 0 -6 -6 3 -13 0 -15 -6 -3 -8 -9 -5 -16 9 -10 17 -9 21 3 19 8 -1 21 -8 28 -16z m1269 -36 c-13 -9 -26 -13 -30 -9 -8 8 17 25 38 25 9 0 6 -6 -8 -16z m-968 -40 c3 -8 0 -14 -7 -14 -7 0 -3 -7 7 -15 16 -12 17 -15 4 -15 -9 0 -22 -2 -30 -3 -7 -2 -10 -2 -5 0 14 8 7 25 -8 19 -18 -6 -18 -5 -6 27 12 30 3 41 -18 24 -14 -11 -14 -10 -3 5 13 16 16 16 37 2 13 -8 26 -22 29 -30z m-104 26 c8 -5 11 -10 5 -10 -5 0 -17 5 -25 10 -8 5 -10 10 -5 10 6 0 17 -5 25 -10z m920 -5 c0 -1 -12 -2 -26 -2 -17 0 -22 2 -13 7 10 7 39 3 39 -5z m352 -8 c-6 -7 -9 -22 -6 -34 6 -23 -13 -42 -21 -20 -8 18 12 67 26 67 8 0 8 -4 1 -13z m-1407 -7 c3 -5 2 -10 -4 -10 -5 0 -13 5 -16 10 -3 6 -2 10 4 10 5 0 13 -4 16 -10z m95 0 c0 -5 -2 -10 -4 -10 -3 0 -8 5 -11 10 -3 6 -1 10 4 10 6 0 11 -4 11 -10z m-30 -10 c0 -5 -2 -10 -4 -10 -3 0 -8 5 -11 10 -3 6 -1 10 4 10 6 0 11 -4 11 -10z m7 -39 c6 -9 9 -18 6 -21 -2 -3 -9 3 -14 13 -6 9 -16 17 -24 17 -8 0 -17 5 -21 11 -11 18 39 -1 53 -20z m1290 7 c-3 -8 -6 -5 -6 6 -1 11 2 17 5 13 3 -3 4 -12 1 -19z m188 1 c5 -5 -5 -4 -23 2 -17 6 -32 13 -32 16 0 7 43 -8 55 -18z m-485 1 c0 -5 -4 -10 -10 -10 -5 0 -10 5 -10 10 0 6 5 10 10 10 6 0 10 -4 10 -10z m-92 -13 c8 -10 6 -13 -11 -14 -12 0 -16 1 -9 4 6 3 10 9 6 14 -8 14 2 11 14 -4z m589 -39 c-3 -8 -6 -5 -6 6 -1 11 2 17 5 13 3 -3 4 -12 1 -19z m-666 -6 c-7 -2 -18 1 -23 6 -8 8 -4 9 13 5 13 -4 18 -8 10 -11z m-715 -13 c1 -21 -6 -30 -17 -23 -6 4 -6 11 2 20 14 17 -2 19 -19 2 -8 -8 -12 -9 -12 -1 0 24 45 26 46 2z m666 2 c-19 -12 8 -21 40 -14 13 3 6 -4 -17 -16 -44 -24 -49 -25 -40 -12 3 5 1 13 -5 16 -13 8 6 35 24 35 7 0 6 -4 -2 -9z m705 -23 c-3 -8 -6 -5 -6 6 -1 11 2 17 5 13 3 -3 4 -12 1 -19z m-653 -23 c-4 -8 -8 -15 -10 -15 -2 0 -4 7 -4 15 0 8 4 15 10 15 5 0 7 -7 4 -15z m-24 -5 c0 -5 -5 -10 -11 -10 -5 0 -7 5 -4 10 3 6 8 10 11 10 2 0 4 -4 4 -10z m177 4 c-3 -3 -12 -4 -19 -1 -8 3 -5 6 6 6 11 1 17 -2 13 -5z m-321 -36 c-17 -11 -46 -9 -46 3 0 6 10 8 23 5 12 -3 16 -3 9 0 -6 3 -10 10 -7 15 4 5 12 3 19 -4 10 -9 11 -14 2 -19z m279 22 c3 -5 1 -10 -4 -10 -6 0 -11 5 -11 10 0 6 2 10 4 10 3 0 8 -4 11 -10z m-165 -7 c0 -5 -5 -15 -10 -23 -7 -12 -9 -10 -7 8 1 19 17 33 17 15z m40 -13 c0 -5 -4 -10 -10 -10 -5 0 -10 5 -10 10 0 6 5 10 10 10 6 0 10 -4 10 -10z m-138 -54 c7 4 8 2 4 -5 -10 -15 -26 -4 -25 17 1 15 2 15 6 -1 2 -9 9 -14 15 -11z m277 2 c-1 -20 -2 -21 -6 -3 -5 17 -7 16 -19 -10 -8 -17 -12 -22 -9 -12 3 10 5 25 5 33 0 8 7 14 15 14 9 0 15 -9 14 -22z m-130 -2 c7 -8 8 -17 3 -20 -6 -3 -12 3 -15 14 -6 24 -4 25 12 6z m586 -26 c0 -27 -2 -35 -8 -24 -7 13 -2 64 6 64 1 0 2 -18 2 -40z m-1058 15 c0 -8 -4 -12 -9 -9 -5 3 -6 10 -3 15 9 13 12 11 12 -6z m153 -10 c11 -13 10 -14 -3 -9 -9 3 -24 -1 -32 -10 -9 -9 -21 -16 -26 -16 -7 0 38 47 47 50 1 0 7 -7 14 -15z m330 -25 c0 -5 -4 -10 -10 -10 -5 0 -10 5 -10 10 0 6 5 10 10 10 6 0 10 -4 10 -10z m106 -10 c0 -12 -4 -16 -9 -11 -5 5 -6 14 -3 20 10 15 12 14 12 -9z m-160 -52 c-13 -25 -16 -27 -11 -8 4 14 7 33 8 42 1 11 5 14 11 8 5 -5 2 -22 -8 -42z m664 48 c0 -3 -4 -8 -10 -11 -5 -3 -10 -1 -10 4 0 6 5 11 10 11 6 0 10 -2 10 -4z m-250 -73 c0 -7 -4 -13 -10 -13 -5 0 -6 7 -3 17 4 11 3 14 -5 9 -8 -5 -10 -2 -5 9 5 13 7 14 14 3 5 -7 9 -19 9 -25z m21 10 c-12 -20 -14 -14 -5 12 4 9 9 14 11 11 3 -2 0 -13 -6 -23z m-411 -3 c0 -11 -4 -20 -9 -20 -5 0 -7 9 -4 20 3 11 7 20 9 20 2 0 4 -9 4 -20z m17 -12 c-3 -8 -6 -5 -6 6 -1 11 2 17 5 13 3 -3 4 -12 1 -19z m-337 -8 c7 -14 7 -20 0 -20 -5 0 -10 5 -10 11 0 6 -7 9 -14 6 -10 -4 -13 -1 -9 9 7 20 20 18 33 -6z m-42 -45 c17 -50 17 -148 1 -222 -7 -32 -12 -64 -10 -72 1 -7 -2 -10 -8 -6 -7 3 -8 0 -5 -9 3 -9 1 -16 -6 -16 -6 0 -8 -4 -5 -10 3 -5 2 -10 -4 -10 -5 0 -9 -19 -8 -42 2 -31 -2 -42 -14 -43 -9 -2 -16 3 -16 11 0 11 3 11 15 1 12 -10 14 -9 11 2 -9 26 -28 23 -44 -8 -8 -17 -20 -31 -25 -31 -6 0 -10 -7 -10 -15 0 -8 -4 -14 -8 -13 -4 2 -28 -15 -52 -36 -25 -21 -39 -35 -31 -31 9 5 12 4 7 -3 -4 -7 -1 -12 6 -12 7 0 4 -6 -7 -13 -22 -13 -66 -17 -59 -5 3 4 -2 5 -10 2 -9 -3 -16 -10 -16 -14 0 -5 -24 -11 -52 -15 -29 -4 -68 -14 -86 -22 -26 -13 -37 -13 -62 -3 -17 7 -30 19 -30 26 0 10 6 8 20 -6 22 -22 36 -25 45 -10 3 6 -3 10 -13 10 -11 0 -25 7 -32 15 -10 12 -16 13 -27 4 -8 -7 -12 -18 -9 -25 3 -7 -1 -15 -8 -17 -15 -6 -14 49 1 78 15 27 8 124 -10 141 -4 4 -7 12 -7 18 0 5 6 1 14 -9 8 -11 12 -24 9 -30 -3 -5 -1 -5 6 1 9 9 7 19 -9 48 -12 20 -17 36 -11 36 6 0 11 -6 11 -14 0 -7 6 -19 14 -25 12 -10 16 -8 22 11 4 13 8 25 9 28 0 3 14 24 31 45 33 44 46 97 17 73 -14 -12 -15 -11 -5 8 6 12 10 23 9 25 -1 2 3 -1 8 -7 6 -6 19 -11 30 -10 25 1 113 73 121 98 3 10 15 18 27 18 24 1 74 37 63 47 -3 3 -14 -1 -23 -10 -17 -14 -18 -14 -19 11 -1 15 1 21 3 15 3 -7 9 -13 14 -13 6 0 7 4 4 10 -4 7 2 7 19 0 21 -7 35 -3 79 23 31 19 53 39 52 48 -2 10 6 15 29 14 27 -1 33 -6 44 -40z m-93 13 c2 -2 -17 -15 -42 -30 -24 -16 -41 -22 -36 -15 4 6 8 17 9 22 0 6 2 15 2 22 2 10 58 11 67 1z m206 -15 c-12 -20 -14 -14 -5 12 4 9 9 14 11 11 3 -2 0 -13 -6 -23z m-94 -5 c-3 -8 -6 -5 -6 6 -1 11 2 17 5 13 3 -3 4 -12 1 -19z m953 18 c0 -3 -4 -8 -10 -11 -5 -3 -10 -1 -10 4 0 6 5 11 10 11 6 0 10 -2 10 -4z m-906 -41 c5 -22 4 -26 -4 -15 -9 13 -10 13 -10 0 0 -13 -1 -13 -10 0 -5 8 -9 22 -9 30 0 10 3 8 9 -5 8 -19 9 -18 9 4 1 30 6 25 15 -14z m651 -5 c3 -5 1 -10 -4 -10 -6 0 -11 5 -11 10 0 6 2 10 4 10 3 0 8 -4 11 -10z m35 -17 c-1 -10 -7 -29 -14 -42 -13 -23 -13 -23 -14 10 -1 25 2 30 9 19 8 -12 10 -10 6 8 -3 12 -1 22 4 22 5 0 9 -8 9 -17z m30 7 c0 -5 -2 -10 -4 -10 -3 0 -8 5 -11 10 -3 6 -1 10 4 10 6 0 11 -4 11 -10z m-680 -15 c0 -8 -2 -15 -4 -15 -2 0 -6 7 -10 15 -3 8 -1 15 4 15 6 0 10 -7 10 -15z m-444 -20 c-11 -8 -34 -15 -50 -15 l-31 -1 24 -19 c13 -11 19 -20 13 -20 -12 0 -35 27 -38 44 -1 8 8 11 26 8 16 -2 36 1 47 7 26 15 31 13 9 -4z m1045 -12 c-12 -20 -14 -14 -5 12 4 9 9 14 11 11 3 -2 0 -13 -6 -23z m-644 -5 c-3 -8 -6 -5 -6 6 -1 11 2 17 5 13 3 -3 4 -12 1 -19z m-417 -18 c0 -6 11 -8 25 -6 21 4 24 2 15 -13 -10 -20 -60 -56 -60 -44 0 14 15 28 29 28 8 0 16 6 19 13 2 7 -2 10 -11 7 -7 -3 -20 1 -27 10 -8 10 -9 15 -1 15 6 0 11 -5 11 -10z m417 -37 c-3 -10 -5 -4 -5 12 0 17 2 24 5 18 2 -7 2 -21 0 -30z m-25 2 c-2 -14 -6 -25 -8 -25 -2 0 -4 11 -4 25 0 14 4 25 9 25 4 0 6 -11 3 -25z m1052 10 c-4 -8 -1 -15 6 -15 6 0 8 -5 4 -11 -4 -8 -9 -7 -15 2 -7 12 -9 12 -9 0 0 -11 -3 -11 -15 -1 -8 7 -15 18 -14 24 0 7 2 6 6 -1 7 -18 23 -16 23 2 0 8 4 15 10 15 5 0 7 -7 4 -15z m-1574 -25 c-24 -34 -27 -36 -27 -15 0 8 4 15 9 15 4 0 8 7 8 15 0 8 7 15 16 15 13 0 12 -5 -6 -30z m1530 -16 c0 -3 -7 -1 -15 6 -8 7 -15 17 -15 22 0 5 7 3 15 -6 8 -8 15 -18 15 -22z m-1485 16 c3 -5 2 -10 -4 -10 -5 0 -13 5 -16 10 -3 6 -2 10 4 10 5 0 13 -4 16 -10z m-85 -14 c0 -3 -4 -8 -10 -11 -5 -3 -10 -1 -10 4 0 6 5 11 10 11 6 0 10 -2 10 -4z m591 -11 c5 4 6 -1 2 -10 -5 -13 -7 -14 -14 -3 -5 7 -8 18 -8 23 0 6 3 4 6 -3 2 -6 9 -10 14 -7z m323 -42 c-4 -21 -7 -47 -6 -58 1 -14 -1 -16 -7 -6 -7 11 -9 11 -13 0 -3 -8 -5 -1 -5 15 0 16 -8 33 -17 38 -9 5 -16 14 -16 20 0 7 5 7 14 -1 11 -9 15 -9 19 1 3 7 6 -3 7 -22 1 -20 4 -27 7 -15 2 11 6 30 9 43 8 38 15 24 8 -15z m254 13 c-17 -12 -17 -14 0 -29 10 -9 18 -25 19 -36 1 -17 -1 -18 -12 -8 -7 6 -12 17 -12 22 1 6 -7 9 -18 8 -11 -1 -14 0 -7 3 6 3 12 10 12 15 0 6 -4 7 -10 4 -6 -4 -7 1 -3 12 6 16 5 17 -12 3 -16 -13 -18 -13 -13 0 3 9 16 15 31 14 15 -1 27 3 27 9 0 6 3 7 7 3 5 -4 0 -13 -9 -20z m-142 -5 c0 -11 -5 -17 -13 -14 -17 6 -17 20 0 26 6 3 12 6 12 6 1 1 1 -7 1 -18z m184 10 c0 -5 -7 -14 -15 -21 -16 -14 -18 -10 -9 14 6 17 24 22 24 7z m24 -7 c3 -8 2 -12 -4 -9 -6 3 -10 10 -10 16 0 14 7 11 14 -7z m-1287 -28 c-2 -6 -8 -11 -13 -11 -5 0 -16 -4 -24 -10 -13 -8 -13 -7 -1 8 7 10 9 17 3 17 -6 0 -20 -12 -31 -27 -11 -16 -21 -25 -21 -21 0 4 14 23 31 43 25 28 34 33 46 24 7 -7 12 -17 10 -23z m630 -18 c-3 -7 -5 -2 -5 12 0 14 2 19 5 13 2 -7 2 -19 0 -25z m635 10 c-7 -7 -12 -8 -12 -2 0 14 12 26 19 19 2 -3 -1 -11 -7 -17z m-615 -10 c-3 -8 -6 -5 -6 6 -1 11 2 17 5 13 3 -3 4 -12 1 -19z m20 -15 c-3 -10 -5 -4 -5 12 0 17 2 24 5 18 2 -7 2 -21 0 -30z m40 0 c-3 -10 -5 -4 -5 12 0 17 2 24 5 18 2 -7 2 -21 0 -30z m-604 -12 c-9 -11 -23 -17 -31 -13 -12 4 -11 7 6 13 12 5 22 13 22 19 0 6 4 9 10 5 5 -3 2 -14 -7 -24z m1479 0 c-5 -14 -4 -14 13 -1 17 14 17 14 4 -8 -8 -12 -19 -20 -25 -18 -6 2 -17 -1 -23 -7 -8 -8 -11 -8 -11 0 0 6 7 13 15 17 8 3 15 11 15 17 0 8 -4 8 -15 -1 -9 -8 -15 -8 -15 -2 0 6 6 12 13 15 24 8 35 3 29 -12z m-357 -41 c1 -10 -2 -17 -6 -14 -4 2 -7 13 -6 24 2 23 10 17 12 -10z m-525 0 c0 -11 -2 -20 -4 -20 -2 0 -6 9 -9 20 -3 11 -1 20 4 20 5 0 9 -9 9 -20z m290 6 c0 -12 -19 -44 -21 -36 -6 31 -3 47 8 47 7 0 13 -5 13 -11z m-1076 -7 c-2 -4 2 -9 8 -12 7 -2 1 -4 -14 -4 -26 0 -35 7 -23 19 8 8 35 5 29 -3z m1656 -2 c0 -2 -12 -14 -27 -28 -15 -13 -22 -17 -15 -8 6 9 8 20 4 24 -4 5 -2 5 5 1 6 -3 14 -2 18 4 6 10 15 14 15 7z m-899 -40 c-10 -9 -11 -8 -5 6 3 10 9 15 12 12 3 -3 0 -11 -7 -18z m479 2 c-7 -11 -9 -23 -6 -26 3 -3 11 6 17 21 12 25 29 36 29 18 0 -16 -48 -54 -54 -43 -7 10 9 51 20 51 2 0 0 -9 -6 -21z m340 7 c0 -8 3 -16 8 -19 4 -2 1 -2 -6 0 -8 1 -20 3 -28 3 -8 0 -14 4 -14 10 0 5 7 6 17 3 11 -4 14 -3 9 5 -4 7 -2 12 3 12 6 0 11 -6 11 -14z m-466 -12 c9 -24 2 -26 -12 -4 -7 11 -8 20 -3 20 5 0 12 -7 15 -16z m-469 -4 c3 -5 1 -10 -4 -10 -6 0 -11 5 -11 10 0 6 2 10 4 10 3 0 8 -4 11 -10z m450 -20 c11 -17 -5 -11 -28 11 l-22 21 22 -11 c12 -6 25 -16 28 -21z m-335 -30 c0 -5 -2 -10 -4 -10 -3 0 -8 5 -11 10 -3 6 -1 10 4 10 6 0 11 -4 11 -10z m440 1 c0 -11 -26 -22 -34 -14 -12 12 -5 23 14 23 11 0 20 -4 20 -9z m-622 -49 c2 -8 -3 -10 -14 -5 -13 5 -16 3 -11 -9 4 -12 1 -14 -14 -11 -10 3 -19 10 -19 15 0 5 5 6 10 3 6 -3 13 1 16 10 7 17 25 16 32 -3z m-461 -43 c2 -16 -1 -19 -9 -11 -5 5 -7 15 -4 21 10 15 12 14 13 -10z m380 3 c-10 -10 -14 -22 -10 -27 5 -4 2 -5 -5 -1 -11 6 -10 12 4 27 9 10 19 19 22 19 3 0 -2 -8 -11 -18z m-590 -44 c-3 -8 -6 -5 -6 6 -1 11 2 17 5 13 3 -3 4 -12 1 -19z m30 0 c-3 -8 -6 -5 -6 6 -1 11 2 17 5 13 3 -3 4 -12 1 -19z m-22 -38 c-3 -5 1 -22 9 -38 12 -24 13 -29 1 -29 -8 0 -12 4 -9 8 3 5 0 18 -6 29 -10 18 -7 40 6 40 3 0 2 -4 -1 -10z m352 -34 c0 -8 -8 -11 -21 -8 -19 5 -19 6 0 13 10 4 19 8 20 8 0 1 1 -5 1 -13z m63 -6 c18 -12 2 -12 -25 0 -13 6 -15 9 -5 9 8 0 22 -4 30 -9z m-177 -7 c-13 -2 -23 -9 -23 -14 0 -5 -5 -9 -11 -9 -8 0 -8 5 1 15 7 8 22 14 34 14 20 -2 20 -2 -1 -6z m101 -12 c3 -4 -6 -6 -19 -3 -14 2 -25 6 -25 8 0 8 39 4 44 -5z m263 -26 c0 -8 -4 -12 -9 -9 -5 3 -6 10 -3 15 9 13 12 11 12 -6z m-507 -80 c-5 -7 -9 -14 -7 -16 1 -2 0 -3 -2 -1 -11 7 -7 29 5 29 9 0 11 -4 4 -12z m190 -5 c0 -5 -10 -10 -22 -10 -19 0 -20 2 -8 10 19 13 30 13 30 0z m130 -19 c24 -7 24 -8 -7 -12 -18 -3 -30 -2 -27 2 2 4 -6 10 -18 12 -21 4 -21 4 2 5 14 0 36 -3 50 -7z m-231 -17 c2 -2 -7 -4 -22 -4 -14 0 -29 5 -32 10 -6 10 42 4 54 -6z" style="fill: rgb(255, 255, 255);"/>
    <path d="M3836 2285 c-11 -8 -15 -15 -9 -15 6 0 16 7 23 15 16 19 11 19 -14 0z" style="fill: rgb(255, 255, 255);"/>
    <path d="M3485 2160 c-3 -6 1 -7 9 -4 18 7 21 14 7 14 -6 0 -13 -4 -16 -10z" style="fill: rgb(255, 255, 255);"/>
    <path d="M2894 1119 c-3 -6 -1 -16 5 -22 8 -8 11 -5 11 11 0 24 -5 28 -16 11z" style="fill: rgb(255, 255, 255);"/>
    <path d="M2934 804 c-18 -15 -18 -15 3 -5 12 6 30 8 40 5 15 -5 15 -4 3 5 -20 14 -23 14 -46 -5z" style="fill: rgb(255, 255, 255);"/>
    <path d="M2100 1485 c0 -8 5 -15 10 -15 6 0 10 7 10 15 0 8 -4 15 -10 15 -5 0 -10 -7 -10 -15z" style="fill: rgb(255, 255, 255);"/>
    <path d="M2727 1359 c7 -7 15 -10 18 -7 3 3 -2 9 -12 12 -14 6 -15 5 -6 -5z" style="fill: rgb(255, 255, 255);"/>
    <path d="M1980 815 c-8 -9 -8 -15 -2 -15 12 0 26 19 19 26 -2 2 -10 -2 -17 -11z" style="fill: rgb(255, 255, 255);"/>
    <path d="M2155 490 c-8 -13 15 -24 27 -12 6 6 4 11 -6 15 -8 3 -18 2 -21 -3z" style="fill: rgb(255, 255, 255);"/>
    <path d="M1856 474 c-5 -14 -4 -15 9 -4 17 14 19 20 6 20 -5 0 -12 -7 -15 -16z" style="fill: rgb(255, 255, 255);"/>
    <path d="M2265 1059 c-11 -17 1 -21 15 -4 8 9 8 15 2 15 -6 0 -14 -5 -17 -11z" style="fill: rgb(255, 255, 255);"/>
    <path d="M1805 810 c3 -5 8 -10 11 -10 2 0 4 5 4 10 0 6 -5 10 -11 10 -5 0 -7 -4 -4 -10z" style="fill: rgb(255, 255, 255);"/>
    <path d="M3945 3030 c-3 -5 -1 -10 4 -10 6 0 11 5 11 10 0 6 -2 10 -4 10 -3 0 -8 -4 -11 -10z" style="fill: rgb(255, 255, 255);"/>
    <path d="M4047 2863 c-4 -7 -3 -15 3 -18 7 -4 9 -33 7 -76 -3 -38 -1 -72 4 -75 5 -3 9 28 8 68 0 76 -10 120 -22 101z" style="fill: rgb(255, 255, 255);"/>
    <path d="M2107 2823 c-13 -12 -7 -22 12 -20 15 1 17 4 9 14 -12 15 -13 15 -21 6z" style="fill: rgb(255, 255, 255);"/>
    <path d="M4484 1982 c2 -4 -13 -6 -35 -4 -30 3 -39 1 -39 -11 0 -9 -4 -19 -10 -22 -6 -4 -7 1 -3 11 4 12 2 15 -8 12 -8 -3 -14 -9 -14 -14 -1 -5 -7 -20 -14 -33 -8 -14 -14 -41 -15 -62 0 -21 -4 -35 -9 -32 -4 2 -7 1 -6 -4 1 -4 -3 -20 -9 -35 -7 -16 -17 -40 -24 -55 -6 -16 -10 -34 -9 -42 1 -7 -2 -10 -7 -7 -6 4 -8 -3 -5 -16 3 -16 2 -19 -4 -10 -12 16 -58 -62 -47 -80 4 -7 3 -8 -4 -4 -12 7 -16 -5 -13 -33 2 -8 -2 -10 -11 -5 -10 6 -9 3 1 -10 11 -13 16 -14 22 -4 7 10 9 10 9 -2 0 -13 1 -13 11 0 9 13 10 13 6 0 -4 -16 -26 -21 -42 -9 -6 4 -15 5 -20 1 -15 -10 -35 -50 -35 -67 0 -9 -3 -14 -8 -11 -4 2 -18 -14 -30 -37 -13 -23 -16 -33 -8 -23 9 11 16 15 16 9 0 -18 -23 -31 -65 -37 -24 -4 -35 -3 -27 3 11 7 11 9 -2 14 -9 4 -16 11 -16 16 0 6 6 8 14 5 21 -8 29 12 12 29 -8 8 -12 18 -8 22 4 5 -1 5 -10 2 -10 -4 -18 -2 -18 2 0 5 5 11 10 13 7 2 6 23 -1 63 -13 69 -6 173 16 234 8 23 10 39 5 36 -6 -3 -10 -2 -10 3 0 6 7 12 15 16 8 3 15 10 15 16 0 5 -7 10 -15 10 -8 0 -15 5 -15 11 0 5 5 7 12 3 6 -4 8 -3 5 2 -9 16 -166 18 -184 2 -9 -7 -19 -11 -22 -8 -9 7 -33 -48 -36 -84 -2 -17 -13 -48 -25 -68 -12 -21 -18 -43 -14 -49 4 -7 -1 -18 -12 -26 -10 -8 -18 -16 -17 -18 1 -3 -10 -31 -24 -62 -15 -32 -26 -66 -26 -76 1 -9 -2 -15 -7 -12 -4 3 -11 -2 -14 -11 -3 -8 -2 -12 4 -9 6 3 10 2 10 -3 0 -6 -7 -12 -15 -16 -20 -7 -35 -48 -24 -62 11 -14 0 -51 -17 -58 -18 -7 -18 2 1 20 20 20 20 41 1 25 -20 -16 -40 -74 -23 -66 7 4 4 0 -6 -9 -11 -8 -24 -30 -31 -48 -6 -18 -24 -57 -40 -87 -15 -29 -23 -50 -17 -46 6 3 11 1 11 -5 0 -6 4 -9 8 -6 4 2 14 0 22 -6 13 -8 12 -9 -1 -5 -9 3 -23 -3 -31 -12 -13 -15 -13 -21 -2 -36 8 -10 17 -16 20 -12 4 4 1 13 -6 22 -8 10 -9 15 -1 15 6 0 11 -6 11 -12 0 -8 7 -5 15 6 14 19 15 18 24 -5 5 -13 10 -19 10 -13 1 6 17 38 36 70 35 57 47 102 23 88 -7 -4 -8 -3 -4 5 4 6 11 9 15 7 4 -3 13 4 20 16 11 17 10 19 -6 14 -10 -3 -24 -1 -32 3 -12 8 -12 12 -2 25 8 9 19 16 25 15 7 0 6 -2 -1 -6 -7 -2 -13 -12 -13 -20 0 -12 3 -13 15 -3 8 6 18 9 23 6 5 -3 17 14 26 37 10 23 36 83 58 132 44 99 54 135 38 135 -5 0 -10 5 -10 11 0 5 5 7 10 4 6 -3 10 -1 10 4 0 6 5 11 11 11 8 0 8 -4 0 -14 -9 -10 -8 -15 2 -19 8 -3 18 -25 22 -49 7 -39 8 -41 15 -18 7 20 8 15 10 -25 1 -27 3 -54 5 -60 1 -5 3 -16 3 -23 1 -7 6 -11 11 -7 5 3 13 0 17 -6 4 -8 3 -9 -4 -5 -19 11 -14 -15 6 -31 9 -8 11 -12 5 -8 -20 10 -15 -13 6 -34 11 -11 17 -22 14 -24 -2 -3 3 -19 12 -36 15 -30 15 -33 -4 -57 -16 -21 -18 -30 -10 -46 9 -18 9 -18 -10 -8 -25 13 -27 7 -5 -14 14 -15 14 -16 0 -16 -17 0 -21 -12 -9 -24 4 -4 8 -21 9 -38 1 -17 -1 -27 -5 -22 -3 5 -15 18 -26 28 -19 18 -19 19 3 12 26 -9 28 1 5 26 -9 11 -11 18 -5 18 7 0 12 5 12 12 0 6 -11 1 -25 -12 -14 -13 -23 -25 -21 -27 2 -2 -13 -21 -33 -42 -70 -74 -91 -102 -91 -121 0 -11 -6 -20 -13 -20 -26 0 -50 -39 -51 -81 -1 -35 2 -43 26 -55 32 -16 77 -18 133 -3 22 5 49 11 60 13 37 7 96 37 102 52 3 8 12 13 20 10 8 -3 25 5 38 18 13 13 26 22 28 20 3 -3 16 9 31 27 18 21 25 38 20 52 -5 15 -3 19 9 14 12 -4 14 -2 10 10 -4 11 -2 14 5 9 13 -8 28 55 18 79 -3 10 -2 13 5 9 7 -4 8 9 4 42 -8 55 -32 120 -41 111 -3 -3 0 -15 6 -27 6 -11 10 -27 8 -35 -2 -8 -10 8 -19 35 -11 31 -13 47 -5 44 7 -3 11 9 12 31 0 19 9 44 19 55 15 16 16 22 5 35 -11 13 -10 14 4 9 9 -3 16 -1 16 6 0 6 5 8 10 5 10 -6 14 7 11 34 -2 7 2 10 7 7 6 -3 19 9 30 26 50 83 79 144 74 157 -3 10 0 11 9 5 9 -5 8 1 -3 19 -10 14 -18 30 -18 34 0 4 5 0 11 -9 11 -20 39 -25 39 -7 0 5 -4 7 -10 4 -5 -3 -10 -1 -10 4 0 6 6 11 14 11 21 0 31 21 15 31 -10 6 -8 9 8 9 17 0 24 -7 28 -27 4 -16 10 -36 15 -45 6 -10 7 -25 3 -34 -3 -10 -2 -15 3 -12 5 3 9 -10 10 -29 0 -19 5 -38 10 -41 5 -4 9 -13 10 -19 2 -30 5 -34 15 -28 6 4 10 1 8 -6 -3 -29 1 -41 15 -36 20 8 36 -13 35 -47 l-1 -31 -7 29 c-3 16 -12 31 -19 34 -11 3 -11 1 0 -17 10 -16 10 -25 1 -40 -10 -16 -9 -18 12 -18 18 0 25 6 29 33 7 33 -9 73 -29 75 -5 0 1 4 13 10 28 11 42 4 41 -19 -1 -15 -2 -15 -6 1 -2 9 -9 17 -15 17 -6 0 -7 -7 -2 -17 13 -29 7 -94 -10 -111 -11 -11 -16 -12 -16 -4 0 9 -5 10 -19 2 -26 -13 -34 -13 -25 3 4 6 -9 -3 -29 -22 -20 -19 -35 -36 -33 -38 1 -2 -14 -21 -34 -43 -42 -46 -85 -123 -83 -151 1 -10 -2 -19 -6 -19 -5 0 -11 -19 -15 -41 -8 -48 8 -105 32 -118 24 -12 112 -7 147 9 17 7 34 12 39 11 5 -1 6 6 2 15 -5 13 -4 14 7 6 18 -16 72 19 55 36 -8 8 -6 9 10 5 30 -7 112 60 105 87 -3 10 2 29 11 42 9 12 16 17 16 11 0 -7 -4 -15 -10 -18 -5 -3 -10 -14 -10 -23 0 -13 4 -11 16 6 9 13 14 32 11 43 -3 10 -1 16 4 13 5 -3 13 5 18 18 11 28 3 142 -10 146 -5 2 -7 7 -4 11 2 5 0 23 -5 41 -5 18 -7 30 -3 26 3 -3 12 -1 20 5 7 6 13 9 13 5 0 -3 12 -1 28 5 15 6 40 12 56 15 15 2 37 6 48 10 64 20 268 6 371 -26 33 -11 65 -16 70 -13 6 3 7 1 3 -5 -7 -12 4 -16 38 -12 10 1 15 -3 12 -8 -3 -5 5 -17 18 -25 13 -9 31 -23 40 -32 16 -16 36 -13 36 7 0 5 -7 8 -15 5 -15 -6 -31 8 -18 16 5 2 3 3 -3 1 -6 -1 -16 1 -23 6 -9 5 -6 9 8 13 12 3 28 -1 35 -9 11 -11 16 -11 20 -1 4 8 5 7 5 -3 -2 -30 1 -41 11 -35 6 4 7 11 4 17 -4 6 -2 8 4 4 6 -3 15 1 20 10 8 14 9 11 9 -12 0 -16 -2 -24 -4 -17 -4 10 -7 10 -17 0 -8 -6 -12 -17 -9 -23 2 -7 0 -15 -6 -19 -6 -3 -9 0 -5 8 3 8 -2 14 -11 14 -22 0 -19 -13 10 -35 13 -11 21 -22 18 -26 -3 -3 2 -6 13 -7 10 0 14 -3 8 -5 -9 -4 -9 -11 0 -29 6 -14 14 -25 17 -25 3 0 4 -15 2 -32 -3 -25 -2 -29 6 -18 17 25 23 3 6 -24 -9 -14 -15 -31 -12 -38 4 -8 6 -6 6 5 1 9 6 17 11 17 7 0 7 -6 0 -20 -6 -11 -15 -20 -21 -20 -6 0 -9 -6 -7 -12 3 -7 -11 -30 -31 -51 -20 -21 -36 -44 -37 -50 -2 -28 -5 -31 -12 -20 -5 8 -14 7 -31 -6 -18 -14 -21 -20 -11 -26 9 -6 11 -4 5 5 -6 10 -4 12 10 7 9 -4 24 -2 33 5 8 7 18 13 21 13 3 0 5 4 3 9 -2 5 4 6 12 3 7 -3 24 6 37 19 15 16 18 23 8 19 -10 -4 -16 0 -16 8 0 8 7 14 16 12 23 -4 51 24 44 43 -4 10 -2 13 5 8 7 -4 12 -3 12 3 0 5 -4 12 -9 16 -6 3 -9 14 -8 25 1 10 5 17 9 14 4 -3 5 -11 1 -19 -3 -8 0 -15 5 -15 24 0 16 165 -8 180 -7 4 -10 15 -7 23 9 24 -48 111 -107 164 -68 60 -170 119 -136 78 8 -9 8 -15 2 -15 -6 0 -12 5 -14 11 -2 7 -12 7 -31 0 -26 -10 -39 1 -14 13 6 4 1 4 -13 0 -14 -3 -52 -7 -85 -8 -33 -1 -52 0 -43 2 15 3 16 6 4 17 -9 10 -45 15 -107 18 l-94 3 96 2 c72 1 99 -1 108 -12 16 -19 80 -25 115 -10 l30 12 -60 13 c-100 22 -394 14 -402 -11 -2 -5 -9 -7 -17 -4 -7 3 -16 0 -20 -5 -3 -6 -11 -9 -16 -6 -5 4 -9 1 -9 -4 0 -6 5 -11 12 -11 6 0 9 -3 6 -6 -4 -3 -16 0 -29 6 -19 11 -21 10 -15 -5 6 -16 4 -16 -11 -4 -9 8 -14 9 -10 3 5 -8 -8 -11 -44 -10 -57 1 -79 22 -59 53 9 15 10 14 6 -7 -3 -14 -3 -19 0 -12 3 6 10 10 15 6 5 -3 2 11 -8 30 -9 20 -21 36 -25 36 -5 0 -6 5 -3 10 3 6 2 10 -4 10 -6 0 -7 7 -4 17 5 12 3 14 -7 8 -8 -5 -11 -4 -7 2 4 6 2 46 -3 89 -9 68 -8 90 8 152 10 40 15 75 10 78 -4 3 -8 11 -8 17 0 8 3 8 9 -1 7 -11 10 -10 15 3 3 9 4 21 0 26 -3 5 1 9 8 9 8 1 6 6 -6 15 -11 9 -31 12 -50 9 -24 -4 -27 -3 -16 5 12 8 8 11 -18 11 -18 0 -31 -3 -28 -8z m94 -37 c-3 -3 -9 2 -12 12 -6 14 -5 15 5 6 7 -7 10 -15 7 -18z m-118 5 c0 -5 -4 -10 -10 -10 -5 0 -10 5 -10 10 0 6 5 10 10 10 6 0 10 -4 10 -10z m-29 -36 c8 -9 8 -14 1 -14 -6 0 -14 5 -17 10 -4 6 -10 8 -14 6 -4 -3 -13 -1 -20 3 -9 6 -5 9 13 9 14 0 31 -7 37 -14z m-60 -37 c-8 -8 -11 -7 -11 4 0 20 13 34 18 19 3 -7 -1 -17 -7 -23z m16 -29 c-3 -8 -6 -5 -6 6 -1 11 2 17 5 13 3 -3 4 -12 1 -19z m177 -3 c-4 -8 -8 -15 -10 -15 -2 0 -4 7 -4 15 0 8 4 15 10 15 5 0 7 -7 4 -15z m-576 -2 c-10 -2 -28 -2 -40 0 -13 2 -5 4 17 4 22 1 32 -1 23 -4z m-128 -20 c0 -3 -7 -3 -15 1 -8 3 -15 0 -15 -6 0 -6 -3 -9 -6 -5 -11 10 6 26 21 20 8 -3 15 -7 15 -10z m515 -2 c-3 -5 -1 -12 4 -15 5 -4 12 2 14 11 2 10 4 3 3 -14 0 -18 -6 -33 -13 -33 -6 0 -13 -6 -16 -12 -2 -7 -8 -10 -12 -5 -5 4 0 13 10 21 12 9 15 15 7 20 -15 9 -16 36 -1 36 5 0 8 -4 4 -9z m112 -63 c-2 -13 -4 -3 -4 22 0 25 2 35 4 23 2 -13 2 -33 0 -45z m-137 32 c0 -5 -5 -10 -11 -10 -5 0 -7 5 -4 10 3 6 8 10 11 10 2 0 4 -4 4 -10z m-520 -24 c8 -11 10 -17 3 -13 -6 4 -13 1 -16 -5 -2 -8 -8 -9 -13 -4 -5 5 -4 11 3 13 7 2 9 12 6 21 -7 18 -5 17 17 -12z m190 4 c0 -5 -5 -10 -11 -10 -5 0 -7 5 -4 10 3 6 8 10 11 10 2 0 4 -4 4 -10z m291 -61 c-5 -13 -10 -19 -10 -12 -1 15 10 45 15 40 3 -2 0 -15 -5 -28z m-494 -11 c-3 -8 -6 -5 -6 6 -1 11 2 17 5 13 3 -3 4 -12 1 -19z m20 -10 c-3 -8 -6 -5 -6 6 -1 11 2 17 5 13 3 -3 4 -12 1 -19z m-44 -13 c-3 -9 -8 -14 -10 -11 -3 3 -2 9 2 15 9 16 15 13 8 -4z m200 -25 c-3 -11 -9 -20 -14 -20 -14 0 -11 28 4 33 6 3 13 6 14 6 0 1 -1 -8 -4 -19z m-66 -37 c-3 -10 -5 -2 -5 17 0 19 2 27 5 18 2 -10 2 -26 0 -35z m364 20 c-12 -20 -14 -14 -5 12 4 9 9 14 11 11 3 -2 0 -13 -6 -23z m32 12 c-3 -9 -8 -14 -10 -11 -3 3 -2 9 2 15 9 16 15 13 8 -4z m-360 -53 c6 -30 5 -32 -9 -18 -10 10 -13 24 -9 37 8 25 10 23 18 -19z m307 34 c0 -3 -4 -8 -10 -11 -5 -3 -10 -1 -10 4 0 6 5 11 10 11 6 0 10 -2 10 -4z m22 -56 c-5 -12 -7 -12 -10 3 -5 22 -18 22 -24 -1 -3 -10 2 -24 10 -31 12 -12 15 -12 23 0 6 9 9 10 9 2 0 -6 -6 -18 -13 -25 -8 -7 -12 -20 -10 -28 4 -13 3 -13 -6 0 -5 8 -7 18 -4 22 8 14 -17 37 -35 31 -10 -3 -13 -1 -7 4 6 4 18 20 28 36 14 22 20 25 31 15 7 -7 11 -20 8 -28z m188 3 c-11 -17 -11 -17 -6 0 3 10 6 24 7 30 0 9 2 9 5 0 3 -7 0 -20 -6 -30z m57 15 c-3 -8 -6 -5 -6 6 -1 11 2 17 5 13 3 -3 4 -12 1 -19z m-801 -45 c-3 -21 -3 -32 0 -26 4 10 9 10 20 -1 19 -19 18 -32 -1 -16 -12 10 -16 9 -21 -4 -5 -13 -8 -13 -20 -1 -16 16 -19 29 -4 20 6 -3 10 3 10 14 0 22 10 51 17 51 3 0 3 -17 -1 -37z m34 13 c0 -3 -4 -8 -10 -11 -5 -3 -10 -1 -10 4 0 6 5 11 10 11 6 0 10 -2 10 -4z m687 -28 c-3 -7 -5 -2 -5 12 0 14 2 19 5 13 2 -7 2 -19 0 -25z m63 17 c0 -8 -4 -15 -8 -15 -5 0 -9 7 -9 15 0 8 4 15 9 15 4 0 8 -7 8 -15z m-43 -17 c-3 -8 -6 -5 -6 6 -1 11 2 17 5 13 3 -3 4 -12 1 -19z m-689 -29 c-3 -8 -7 -3 -11 10 -4 17 -3 21 5 13 5 -5 8 -16 6 -23z m136 7 c-3 -9 -11 -13 -17 -9 -6 4 -8 -3 -3 -21 4 -18 3 -25 -4 -21 -15 9 -12 36 7 57 19 21 26 18 17 -6z m657 -23 c-12 -20 -14 -14 -5 12 4 9 9 14 11 11 3 -2 0 -13 -6 -23z m-111 -20 c-10 -16 -11 -16 -6 0 3 9 1 17 -5 17 -6 0 -7 5 -3 11 4 7 10 7 16 1 7 -7 6 -16 -2 -29z m758 2 c2 -1 -3 -5 -10 -8 -8 -2 -27 1 -43 8 -30 13 -30 13 10 8 22 -3 41 -7 43 -8z m-1488 -4 c0 -6 -4 -13 -10 -16 -5 -3 -10 1 -10 9 0 9 5 16 10 16 6 0 10 -4 10 -9z m511 -18 c-12 -20 -14 -14 -5 12 4 9 9 14 11 11 3 -2 0 -13 -6 -23z m555 -6 c1 -9 -2 -19 -7 -23 -5 -3 -7 -10 -4 -15 3 -5 -1 -6 -10 -3 -14 6 -14 8 1 19 12 8 14 14 6 19 -16 9 -15 29 0 24 6 -2 12 -12 14 -21z m-235 -10 c-10 -9 -11 -8 -5 6 3 10 9 15 12 12 3 -3 0 -11 -7 -18z m276 7 c-3 -3 -12 -4 -19 -1 -8 3 -5 6 6 6 11 1 17 -2 13 -5z m221 -1 c-10 -2 -28 -2 -40 0 -13 2 -5 4 17 4 22 1 32 -1 23 -4z m-1325 -21 c4 9 6 7 6 -4 1 -27 -18 -31 -28 -6 l-10 23 -1 -25 c-1 -14 -4 -19 -7 -12 -3 7 -2 20 2 30 6 16 7 16 20 -1 10 -13 14 -15 18 -5z m177 11 c-1 -5 -7 -19 -14 -32 -11 -21 -14 -21 -20 -6 -3 10 -1 24 5 31 12 15 29 19 29 7z m974 -22 c-2 -3 -12 3 -22 13 -16 17 -16 18 5 5 12 -7 20 -15 17 -18z m-691 -6 c-7 -19 -19 -19 -26 -1 -4 11 -1 13 10 9 12 -5 14 -3 8 7 -5 8 -4 11 3 6 6 -4 9 -13 5 -21z m547 15 c-8 -5 -19 -10 -25 -10 -5 0 -3 5 5 10 8 5 20 10 25 10 6 0 3 -5 -5 -10z m199 1 c11 -7 9 -10 -8 -16 -13 -4 -25 -4 -28 -1 -4 3 2 6 13 7 18 0 18 1 -1 9 -13 6 -15 9 -5 9 8 0 21 -3 29 -8z m90 -7 c2 -2 -7 -4 -22 -4 -14 0 -29 5 -32 10 -6 10 42 4 54 -6z m167 -2 c-10 -2 -22 0 -28 6 -6 6 0 7 19 4 21 -5 23 -7 9 -10z m208 -48 c-1 -13 3 -24 9 -24 5 0 8 -3 4 -6 -3 -3 -14 -1 -24 5 -12 7 -13 10 -4 11 11 0 11 3 1 15 -7 8 -9 15 -4 15 4 0 -2 9 -14 20 -31 29 -27 34 7 10 19 -15 27 -29 25 -46z m-1723 29 c1 -10 3 -31 5 -47 1 -15 1 -26 -2 -23 -3 3 -7 16 -9 29 -1 12 -6 31 -10 41 -4 10 -3 17 4 17 6 0 12 -8 12 -17z m469 6 c0 -6 -5 -7 -12 -3 -8 5 -9 0 -5 -15 3 -13 3 -20 0 -17 -4 3 -13 0 -22 -7 -14 -11 -14 -10 -2 5 7 10 11 24 8 31 -3 8 3 13 14 14 10 1 19 -3 19 -8z m1007 5 c-3 -3 -12 -4 -19 -1 -8 3 -5 6 6 6 11 1 17 -2 13 -5z m-1514 -19 c-3 -9 -8 -14 -10 -11 -3 3 -2 9 2 15 9 16 15 13 8 -4z m1122 6 c17 -7 16 -9 -13 -16 -18 -4 -36 -4 -39 -1 -4 3 5 6 18 7 22 0 23 1 4 9 -26 11 2 12 30 1z m480 -1 l-30 -8 29 -1 c16 0 27 -4 23 -7 -7 -8 -87 6 -87 14 0 4 21 8 48 9 40 1 42 0 17 -7z m65 -4 c0 -11 -19 -15 -25 -6 -3 5 1 10 9 10 9 0 16 -2 16 -4z m147 -41 c17 -19 27 -37 22 -41 -5 -3 -14 6 -20 20 -7 14 -17 23 -23 19 -6 -3 -8 -3 -4 2 4 4 3 14 -3 22 -25 29 -1 11 28 -22z m-1810 -17 c-3 -7 -5 -2 -5 12 0 14 2 19 5 13 2 -7 2 -19 0 -25z m1032 -8 c6 -18 6 -28 1 -25 -6 4 -10 13 -10 21 0 17 -11 18 -30 2 -8 -7 -6 -3 4 10 11 12 20 22 22 22 1 0 7 -14 13 -30z m661 26 c0 -2 -7 -7 -16 -10 -8 -3 -12 -2 -9 4 6 10 25 14 25 6z m-1220 -10 c0 -3 -4 -8 -10 -11 -5 -3 -10 -1 -10 4 0 6 5 11 10 11 6 0 10 -2 10 -4z m1260 -16 c-20 -13 -33 -13 -25 0 3 6 14 10 23 10 15 0 15 -2 2 -10z m-1700 -21 c0 -5 -4 -9 -10 -9 -5 0 -10 7 -10 16 0 8 5 12 10 9 6 -3 10 -10 10 -16z m424 -4 c9 -14 12 -25 6 -25 -5 0 -10 5 -10 10 0 6 -4 10 -10 10 -19 0 -10 -21 13 -30 17 -7 18 -9 5 -9 -10 -1 -18 -6 -18 -12 0 -5 6 -7 13 -3 8 5 8 3 -2 -9 -7 -9 -11 -29 -8 -43 3 -17 1 -22 -5 -16 -12 12 -18 152 -7 152 3 0 14 -11 23 -25z m541 -23 c-15 -16 -16 -15 -4 12 7 15 15 23 17 16 3 -7 -3 -19 -13 -28z m-965 -9 c0 -7 -4 -13 -9 -13 -5 0 -11 6 -14 13 -3 8 1 14 9 14 8 0 14 -6 14 -14z m275 -9 c-9 -9 -13 -19 -10 -22 3 -4 10 0 15 8 8 13 11 13 22 1 7 -8 8 -11 2 -8 -7 4 -17 0 -24 -9 -10 -11 -15 -12 -21 -3 -9 15 7 49 22 49 6 0 3 -7 -6 -16z m522 -44 c10 0 43 32 43 42 0 5 -6 6 -12 2 -7 -4 -10 -3 -5 1 4 5 18 9 31 10 22 0 23 -3 25 -69 1 -38 4 -73 6 -77 3 -4 -1 -12 -9 -18 -15 -13 -19 -61 -4 -61 13 0 38 -26 38 -39 0 -6 6 -11 13 -11 6 -1 1 -10 -12 -20 -13 -11 -28 -20 -35 -19 -6 0 -1 5 12 11 12 6 22 15 22 20 0 5 -10 3 -22 -3 -23 -12 -23 -12 -5 9 12 13 15 22 8 27 -6 3 -11 0 -11 -7 -1 -7 -8 -1 -16 15 -8 15 -12 33 -9 40 4 6 -4 -1 -16 -17 -12 -15 -36 -37 -53 -48 -17 -11 -23 -18 -14 -15 13 5 15 2 11 -10 -4 -10 -2 -14 4 -10 11 7 28 -22 18 -31 -3 -3 -5 -1 -5 5 0 6 -7 14 -16 17 -12 4 -15 2 -10 -9 8 -22 -7 -18 -21 5 -11 17 -10 19 5 14 13 -5 14 -4 3 4 -19 14 -41 4 -34 -15 4 -10 -2 -8 -19 7 -27 23 -27 45 0 87 7 12 10 28 6 34 -4 7 -3 9 4 5 6 -3 14 4 17 16 4 13 18 38 32 56 22 29 23 34 10 53 -9 13 -17 16 -22 10 -3 -6 -1 -11 6 -11 7 0 10 -2 7 -5 -3 -3 -12 -3 -21 1 -15 5 -15 8 -1 21 8 9 12 18 8 22 -4 3 -9 0 -11 -6 -3 -7 -9 -13 -15 -13 -6 0 -3 9 7 20 18 20 18 20 36 -10 10 -16 22 -30 26 -30z m7 37 c4 4 4 -1 0 -10 -7 -20 -7 -20 -23 13 -11 22 -10 23 2 8 8 -10 17 -15 21 -11z m136 19 c0 -3 -4 -8 -10 -11 -5 -3 -10 -1 -10 4 0 6 5 11 10 11 6 0 10 -2 10 -4z m-1020 -25 c0 -4 -7 -8 -15 -8 -16 0 -20 9 -9 20 8 8 24 -1 24 -12z m980 -79 c-6 -21 -8 -13 -8 33 0 51 1 55 8 27 4 -19 4 -46 0 -60z m960 66 c10 -21 10 -21 -3 -6 -8 10 -16 15 -19 12 -4 -3 -9 -1 -13 5 -3 6 1 11 9 11 8 0 20 -10 26 -22z m-930 8 c0 -3 -4 -8 -10 -11 -5 -3 -10 -1 -10 4 0 6 5 11 10 11 6 0 10 -2 10 -4z m905 -45 c6 -21 5 -22 -8 -10 -8 8 -13 17 -10 22 2 4 -1 7 -7 7 -6 0 -8 5 -4 11 8 13 19 2 29 -30z m-1951 -28 c-21 -15 -38 -17 -29 -3 3 6 13 10 21 10 8 0 14 5 14 10 0 6 -4 10 -10 10 -5 0 -7 7 -3 17 5 13 8 12 15 -8 7 -18 5 -27 -8 -36z m31 47 c3 -5 1 -10 -4 -10 -6 0 -11 5 -11 10 0 6 2 10 4 10 3 0 8 -4 11 -10z m380 -9 c-3 -6 -11 -11 -16 -11 -5 0 -4 6 3 14 14 16 24 13 13 -3z m426 -5 c5 3 12 -2 15 -11 6 -14 8 -14 25 1 11 9 19 13 19 7 0 -5 -9 -18 -20 -28 -12 -11 -20 -13 -20 -6 0 7 -4 10 -9 6 -6 -3 -8 -19 -6 -36 3 -25 1 -28 -10 -19 -8 7 -20 8 -26 4 -7 -4 -9 -3 -6 3 4 6 -1 17 -10 24 -15 12 -16 12 -9 -6 5 -15 4 -17 -5 -8 -15 15 -4 32 20 30 12 -1 17 -7 14 -17 -3 -8 4 -4 16 10 24 29 28 48 6 30 -13 -10 -15 -9 -14 11 0 13 3 18 6 11 2 -6 9 -10 14 -6z m-421 -26 c0 -5 -4 -10 -10 -10 -5 0 -10 5 -10 10 0 6 5 10 10 10 6 0 10 -4 10 -10z m-357 -18 c3 7 6 8 6 2 1 -5 -5 -18 -12 -29 -11 -14 -16 -15 -22 -5 -5 9 -4 11 3 6 15 -9 15 -1 1 27 -9 20 -9 21 4 4 11 -14 16 -15 20 -5z m1947 -13 c0 -6 -4 -7 -10 -4 -5 3 -10 11 -10 16 0 6 5 7 10 4 6 -3 10 -11 10 -16z m-1480 -24 c0 -5 -5 -3 -10 5 -5 8 -10 20 -10 25 0 6 5 3 10 -5 5 -8 10 -19 10 -25z m30 2 c0 -5 -4 -5 -10 -2 -5 3 -10 14 -10 23 0 15 2 15 10 2 5 -8 10 -19 10 -23z m-604 -15 c-10 -11 -16 -12 -16 -4 0 7 5 12 10 12 6 0 10 8 11 18 0 11 2 13 6 4 3 -8 -2 -21 -11 -30z m465 11 c-8 -15 -10 -15 -11 -2 0 17 10 32 18 25 2 -3 -1 -13 -7 -23z m-30 2 c3 2 5 -5 6 -15 1 -11 -3 -20 -9 -20 -6 0 -8 3 -5 7 4 3 -1 16 -10 27 -14 15 -14 18 -2 8 9 -6 18 -10 20 -7z m679 -7 c0 -12 -3 -18 -7 -15 -3 4 -13 1 -22 -6 -14 -10 -14 -10 -4 4 7 9 9 20 5 24 -4 5 -1 5 6 1 6 -4 12 -2 12 3 0 6 2 11 5 11 3 0 5 -10 5 -22z m931 7 c5 4 6 -1 2 -10 -5 -13 -7 -14 -14 -3 -5 7 -8 18 -8 23 0 6 3 4 6 -3 2 -6 9 -10 14 -7z m-1541 -44 c-18 -34 -38 -101 -30 -101 5 0 18 24 29 53 11 28 20 44 20 35 1 -10 -14 -49 -33 -87 -19 -38 -32 -72 -29 -75 3 -2 2 -10 -2 -16 -8 -13 -35 5 -35 23 0 6 7 2 15 -9 8 -10 15 -14 15 -8 0 5 -5 15 -12 22 -9 9 -9 12 0 12 6 0 16 9 22 20 16 29 9 25 -35 -21 -22 -23 -35 -39 -28 -35 6 3 14 2 18 -3 3 -6 -4 -8 -16 -6 -23 5 -49 -10 -49 -26 0 -5 5 -9 11 -9 5 0 7 5 3 12 -4 7 -3 8 5 4 20 -13 1 -26 -28 -20 -27 6 -29 4 -26 -25 3 -36 -5 -40 -23 -10 -10 15 -10 19 -1 14 8 -6 10 -4 4 4 -5 9 -14 6 -33 -11 l-27 -23 20 23 c16 19 17 25 5 32 -8 5 -18 6 -24 3 -5 -4 -6 -1 -1 7 6 10 4 12 -8 7 -10 -3 -17 -2 -17 3 0 6 5 10 11 10 8 0 7 5 -1 15 -11 13 -10 14 3 9 9 -3 19 -14 22 -25 4 -10 11 -19 16 -19 17 0 149 144 144 157 -2 7 0 12 6 10 6 -1 18 9 27 23 16 24 16 24 -1 11 -27 -21 -20 -7 10 20 14 13 23 18 19 12 -5 -9 -2 -11 8 -7 9 3 12 12 8 22 -5 15 -4 15 11 3 12 -9 14 -18 7 -30z m640 32 c-1 -13 -29 -59 -30 -48 0 21 13 55 21 55 5 0 9 -3 9 -7z m-1100 -7 c0 -3 -4 -8 -10 -11 -5 -3 -10 -1 -10 4 0 6 5 11 10 11 6 0 10 -2 10 -4z m34 -5 c3 -4 -3 -16 -14 -26 -12 -10 -20 -13 -20 -7 0 7 5 12 11 12 6 0 9 7 5 15 -6 16 9 21 18 6z m476 -5 c0 -3 -4 -8 -10 -11 -5 -3 -10 -1 -10 4 0 6 5 11 10 11 6 0 10 -2 10 -4z m227 -28 c-3 -8 -6 -5 -6 6 -1 11 2 17 5 13 3 -3 4 -12 1 -19z m-427 -8 c0 -5 -5 -10 -11 -10 -5 0 -7 5 -4 10 3 6 8 10 11 10 2 0 4 -4 4 -10z m194 -16 c3 -8 2 -12 -4 -9 -14 8 -13 1 5 -42 20 -48 19 -54 -5 -18 -11 17 -20 24 -20 16 0 -8 -2 -12 -5 -10 -5 5 13 79 19 79 2 0 7 -7 10 -16z m272 -13 c-8 -12 -46 -21 -46 -11 0 5 10 11 23 13 12 2 23 5 25 6 2 0 1 -3 -2 -8z m304 0 c0 -12 -20 -25 -27 -18 -7 7 6 27 18 27 5 0 9 -4 9 -9z m-783 -12 c12 -12 5 -52 -8 -44 -4 3 -6 13 -3 23 5 14 4 15 -5 2 -12 -18 -24 -9 -15 14 7 19 16 20 31 5z m671 -1 c-3 -7 -13 -15 -24 -17 -16 -3 -17 -1 -5 13 16 19 34 21 29 4z m-389 -29 c-7 -4 -17 -5 -22 -2 -5 3 -3 9 4 14 7 4 17 5 22 2 5 -3 3 -9 -4 -14z m138 -14 c-1 -19 -5 -35 -9 -35 -9 0 -10 16 -2 48 9 31 12 27 11 -13z m-390 1 c-3 -8 -16 -20 -29 -27 l-23 -11 23 21 c12 12 22 27 22 33 0 6 3 9 6 5 4 -3 4 -13 1 -21z m-83 -8 c-7 -27 -35 -60 -42 -53 -3 3 3 14 14 26 10 12 18 23 17 25 -7 10 -2 24 8 24 6 0 8 -9 3 -22z m499 7 c-3 -9 -8 -14 -10 -11 -3 3 -2 9 2 15 9 16 15 13 8 -4z m232 5 c3 -5 -1 -10 -10 -10 -9 0 -13 5 -10 10 3 6 8 10 10 10 2 0 7 -4 10 -10z m1008 -11 c15 -11 -18 -29 -33 -17 -12 8 -12 9 3 4 15 -5 17 -2 11 17 -4 13 -3 18 2 12 5 -5 13 -12 17 -16z m-1710 -15 c-4 -12 -8 -13 -14 -3 -9 15 -2 32 11 24 5 -3 6 -13 3 -21z m691 -10 c3 -8 2 -12 -4 -9 -6 3 -10 10 -10 16 0 14 7 11 14 -7z m-109 -14 c-3 -5 -11 -10 -16 -10 -6 0 -7 5 -4 10 3 6 11 10 16 10 6 0 7 -4 4 -10z m-311 -15 c3 -9 0 -15 -9 -15 -9 0 -12 6 -9 15 4 8 7 15 9 15 2 0 5 -7 9 -15z m173 -7 c-3 -8 -6 -5 -6 6 -1 11 2 17 5 13 3 -3 4 -12 1 -19z m233 18 c0 -3 -4 -8 -10 -11 -5 -3 -10 -1 -10 4 0 6 5 11 10 11 6 0 10 -2 10 -4z m-683 -12 c-3 -3 -12 -4 -19 -1 -8 3 -5 6 6 6 11 1 17 -2 13 -5z m613 -9 c-7 -8 -18 -15 -25 -15 -8 0 -16 -6 -18 -12 -4 -9 -6 -8 -6 2 -1 8 9 20 22 26 32 17 41 16 27 -1z m1046 -14 c-4 -5 -13 -8 -21 -5 -11 5 -12 9 -2 19 13 15 33 3 23 -14z m-1414 -33 c-7 -7 -10 -5 -7 8 5 29 6 30 12 16 3 -8 1 -18 -5 -24z m-49 2 c4 0 5 4 2 10 -4 6 1 7 11 3 15 -5 15 -7 -1 -16 -12 -7 -21 -5 -31 7 -8 9 -9 11 -2 6 7 -6 16 -10 21 -10z m-336 -35 c0 -8 -7 -15 -15 -15 -12 0 -12 3 -2 15 7 8 13 15 15 15 1 0 2 -7 2 -15z m223 11 c0 -3 -14 -11 -30 -20 -17 -8 -28 -10 -24 -5 3 6 16 14 28 19 26 11 26 11 26 6z m120 -6 c-8 -5 -19 -10 -25 -10 -5 0 -3 5 5 10 8 5 20 10 25 10 6 0 3 -5 -5 -10z m-300 -34 c-7 -7 -13 -7 -20 0 -6 6 -3 10 10 10 13 0 16 -4 10 -10z m177 8 c-3 -3 -12 -4 -19 -1 -8 3 -5 6 6 6 11 1 17 -2 13 -5z m58 -14 c-3 -5 -12 -10 -18 -10 -7 0 -6 4 3 10 19 12 23 12 15 0z m-62 -14 c4 -11 1 -13 -10 -9 -12 5 -14 3 -8 -7 5 -9 4 -11 -3 -6 -6 4 -20 3 -29 -2 -10 -6 -27 -6 -38 -1 l-20 9 20 -2 c27 -2 65 11 65 23 0 14 17 11 23 -5z m-124 -12 c8 -7 -54 -2 -79 6 -17 6 -9 7 25 3 28 -3 52 -7 54 -9z m-69 -14 c13 -9 13 -10 0 -9 -8 0 -24 4 -35 9 l-20 9 20 0 c11 0 27 -4 35 -9z m60 -16 c0 -2 -7 -4 -15 -4 -8 0 -15 4 -15 10 0 5 7 7 15 4 8 -4 15 -8 15 -10z" style="fill: rgb(255, 255, 255);"/>
    <path d="M3895 1409 c-4 -6 -5 -12 -2 -15 2 -3 7 2 10 11 7 17 1 20 -8 4z" style="fill: rgb(255, 255, 255);"/>
    <path d="M3051 1649 c-13 -11 -21 -22 -19 -25 3 -3 19 6 34 20 34 30 20 35 -15 5z" style="fill: rgb(255, 255, 255);"/>
    <path d="M1701 1634 c0 -11 3 -14 6 -6 3 7 2 16 -1 19 -3 4 -6 -2 -5 -13z" style="fill: rgb(255, 255, 255);"/>
    <path d="M5280 1449 c0 -5 5 -7 10 -4 6 3 10 8 10 11 0 2 -4 4 -10 4 -5 0 -10 -5 -10 -11z" style="fill: rgb(255, 255, 255);"/>
    <path d="M4610 1440 c0 -5 4 -10 9 -10 6 0 13 5 16 10 3 6 -1 10 -9 10 -9 0 -16 -4 -16 -10z" style="fill: rgb(255, 255, 255);"/>
    <path d="M4040 1371 c0 -6 5 -13 10 -16 6 -3 10 1 10 9 0 9 -4 16 -10 16 -5 0 -10 -4 -10 -9z" style="fill: rgb(255, 255, 255);"/>
    <path d="M2340 1285 c-11 -13 -10 -14 4 -9 9 3 16 10 16 15 0 13 -6 11 -20 -6z" style="fill: rgb(255, 255, 255);"/>
    <path d="M2272 1151 c-10 -6 -7 -10 11 -13 18 -4 24 -1 20 9 -6 15 -13 16 -31 4z" style="fill: rgb(255, 255, 255);"/>
    <path d="M3545 1010 c-8 -12 2 -30 17 -30 7 0 7 4 -1 13 -6 8 -8 17 -4 20 3 4 4 7 0 7 -3 0 -9 -4 -12 -10z" style="fill: rgb(255, 255, 255);"/>
    <path d="M3460 856 c0 -2 8 -10 18 -17 15 -13 16 -12 3 4 -13 16 -21 21 -21 13z" style="fill: rgb(255, 255, 255);"/>
    <path d="M3216 745 c-6 -23 7 -65 20 -65 3 0 2 5 -2 12 -4 6 -7 26 -6 45 2 39 -3 43 -12 8z" style="fill: rgb(255, 255, 255);"/>
    <path d="M3247 744 c-4 -4 -7 -17 -7 -28 1 -19 1 -20 11 -3 11 19 8 43 -4 31z" style="fill: rgb(255, 255, 255);"/>
    <path d="M2190 290 c-8 -5 -10 -10 -5 -10 6 0 17 5 25 10 8 5 11 10 5 10 -5 0 -17 -5 -25 -10z" style="fill: rgb(255, 255, 255);"/>
  </g>
</svg>